<?xml version="1.0" encoding="UTF-8"?>
<svg version="1.1" xmlns="http://www.w3.org/2000/svg" width="512" height="512">
<path d="M0 0 C1.10779816 -0.00619858 2.21559631 -0.01239716 3.35696411 -0.01878357 C5.68474455 -0.0258418 8.01257591 -0.02277832 10.34033203 -0.01000977 C13.86717338 0.00384481 17.39135094 -0.03026699 20.91796875 -0.06835938 C36.42577881 -0.12221785 48.58697121 0.76205682 60.7890625 11.33984375 C70.32663263 20.91099687 74.36155251 31.21741714 74.5078125 44.56640625 C74.35356716 57.5624727 70.6412067 66.70417127 62.0078125 76.56640625 C53.71447605 84.31328255 43.53617548 88.58886516 32.27734375 89.125 C29.51126839 89.66298023 28.7546923 90.39325075 27.0078125 92.56640625 C26.54033837 94.4733965 26.54033837 94.4733965 26.57543945 96.57885742 C26.54574821 97.77976265 26.54574821 97.77976265 26.51545715 99.00492859 C26.50906723 99.8643959 26.50267731 100.72386322 26.49609375 101.609375 C26.47814255 102.49297195 26.46019135 103.37656891 26.44169617 104.28694153 C26.38751254 107.10921455 26.35367189 109.93131769 26.3203125 112.75390625 C26.28714651 114.66734139 26.25265752 116.58075409 26.21679688 118.49414062 C26.13178151 123.1847734 26.06500888 127.87535509 26.0078125 132.56640625 C26.83804932 132.82421875 27.66828613 133.08203125 28.52368164 133.34765625 C32.38269267 134.69753944 36.05489214 136.33813483 39.75390625 138.06640625 C40.87968834 138.58763062 40.87968834 138.58763062 42.0282135 139.11938477 C44.50194675 140.26546965 46.97360058 141.4159694 49.4453125 142.56640625 C51.19515583 143.37794207 52.94515864 144.1891341 54.6953125 145 C58.33118618 146.68486567 61.966369 148.37120895 65.60107422 150.05859375 C73.09636886 153.53688441 80.59994942 156.99718556 88.10354614 160.45751953 C92.15536674 162.32628504 96.20655521 164.19641994 100.2578125 166.06640625 C101.88280952 166.8164127 103.50780952 167.5664127 105.1328125 168.31640625 C153.8828125 190.81640625 153.8828125 190.81640625 156.31996155 191.94125366 C157.94612186 192.69178293 159.57229171 193.44229153 161.19847107 194.19277954 C165.24329643 196.05951305 169.28795924 197.9265971 173.33227539 199.79443359 C180.8548714 203.2682434 188.37895098 206.73871403 195.90866089 210.19708252 C199.41286802 211.80680718 202.91618082 213.41847305 206.41943359 215.03027344 C208.06791705 215.78807233 209.716824 216.54495085 211.36621094 217.30078125 C219.54527044 221.04909245 227.6949031 224.84668674 235.7578125 228.83984375 C236.4006871 229.15563385 237.04356171 229.47142395 237.70591736 229.79678345 C250.89407857 236.39800871 261.27386486 245.36456332 266.0078125 259.56640625 C267.39356803 274.5210976 265.45784929 286.04011314 256.140625 298.125 C250.11716531 305.01998591 241.08878709 310.80940245 232.0078125 312.56640625 C229.58572041 312.66152487 227.16113089 312.6973354 224.73717403 312.70062733 C223.99972329 312.70297956 223.26227255 312.70533179 222.50247481 312.7077553 C220.01782475 312.71444128 217.53322703 312.7139872 215.04856873 312.71357727 C213.25454235 312.71687615 211.46051673 312.72060177 209.66649204 312.72471875 C204.72567889 312.7347442 199.78487789 312.73845642 194.84405601 312.74110806 C189.51938922 312.7450095 184.19473206 312.75458797 178.87007141 312.76332092 C166.0054274 312.78309005 153.1407826 312.7931522 140.27612719 312.80204871 C134.21917503 312.80643096 128.16222376 312.81179794 122.10527229 312.81703758 C101.97258276 312.83405045 81.83989377 312.84854481 61.70719814 312.85578632 C56.48180071 312.85769624 51.25640328 312.85961657 46.03100586 312.86157227 C44.08286493 312.86229788 44.08286493 312.86229788 42.09536762 312.86303815 C21.0544823 312.87133913 0.01365383 312.89667695 -21.02720667 312.92915294 C-42.62531457 312.96221747 -64.22339359 312.98023455 -85.82152694 312.98343056 C-97.949719 312.98559624 -110.07782816 312.99435336 -122.20599556 313.01989174 C-132.53460934 313.04159042 -142.86312012 313.04965322 -153.19175411 313.03992496 C-158.46094352 313.03537786 -163.72992035 313.03729049 -168.99908066 313.0566864 C-173.82613779 313.07430133 -178.652827 313.07333376 -183.47988795 313.05778911 C-185.22289109 313.05541052 -186.96591959 313.05974963 -188.70888395 313.07161776 C-203.58417995 313.16660358 -214.51766154 310.59055213 -225.9921875 300.56640625 C-236.10420809 289.91992369 -238.48742326 278.32242109 -238.26953125 264.22265625 C-238.05872535 258.92838656 -236.9972893 254.96206758 -233.9921875 250.56640625 C-233.55648437 249.88707031 -233.12078125 249.20773437 -232.671875 248.5078125 C-223.15848757 234.75758858 -207.49660077 227.97949977 -192.66503906 221.41113281 C-189.05113127 219.81012168 -185.44822515 218.18460748 -181.84375 216.5625 C-181.10529846 216.2308786 -180.36684692 215.8992572 -179.60601807 215.55758667 C-172.02693966 212.14744738 -164.50798479 208.61327718 -156.9921875 205.06640625 C-145.5117299 199.65485625 -133.98346101 194.35927907 -122.41943359 189.12890625 C-112.23831485 184.52184804 -102.10122654 179.82943814 -91.9921875 175.06640625 C-80.51815005 169.660234 -68.99836305 164.36578826 -57.44158936 159.13897705 C-44.8267922 153.43098365 -32.28109153 147.58265848 -19.75640869 141.67987061 C-16.8367615 140.30495015 -13.91483312 138.93493994 -10.9921875 137.56640625 C-9.36748535 136.80505371 -9.36748535 136.80505371 -7.70996094 136.02832031 C-6.22157715 135.33947754 -6.22157715 135.33947754 -4.703125 134.63671875 C-3.8373584 134.23469238 -2.9715918 133.83266602 -2.07958984 133.41845703 C0.0078125 132.56640625 0.0078125 132.56640625 2.0078125 132.56640625 C1.99670944 131.98726471 1.98560638 131.40812317 1.97416687 130.81143188 C1.86291946 124.74374937 1.78787629 118.67635994 1.7331543 112.60791016 C1.70812341 110.34802468 1.67408812 108.08821923 1.63061523 105.82861328 C1.56946017 102.56653006 1.54148748 99.3055238 1.51953125 96.04296875 C1.49372482 95.0446402 1.4679184 94.04631165 1.44132996 93.01773071 C1.43817459 84.99476881 3.47144182 78.41190168 8.98295593 72.41860962 C15.1770094 66.58368579 20.63795066 64.67342666 28.9453125 63.69140625 C36.88197965 62.65398855 41.44346667 60.70772989 46.5078125 54.50390625 C48.957152 49.47342423 48.82986347 43.99626926 48.0078125 38.56640625 C46.30866754 33.92759015 43.75712094 30.74333552 39.5703125 28.12890625 C32.1265388 24.86409322 24.30332841 25.38020702 16.32275391 25.38110352 C14.14595916 25.37891944 11.96967395 25.36073544 9.79296875 25.34179688 C-4.01233257 25.22848753 -4.01233257 25.22848753 -15.9921875 31.56640625 C-19.30283184 36.01212865 -20.3059626 39.76259678 -21.3671875 45.19140625 C-22.91232161 52.29575304 -22.91232161 52.29575304 -25.5546875 54.87890625 C-30.16775592 57.14350347 -33.9487983 57.61268472 -38.9921875 56.56640625 C-42.10632786 54.86208798 -44.38028449 52.79021226 -45.9921875 49.56640625 C-47.03325523 36.06665916 -44.68146789 25.98306601 -36.3203125 15.14453125 C-26.44026337 4.20353725 -14.45828724 -0.068961 0 0 Z M5.1640625 157.67578125 C4.41495605 158.02892395 3.66584961 158.38206665 2.89404297 158.74591064 C0.422104 159.91651271 -2.03437323 161.11646883 -4.4921875 162.31640625 C-6.23654395 163.1481154 -7.98200812 163.97750488 -9.72851562 164.8046875 C-13.35722939 166.52553617 -16.98096437 168.25628575 -20.6015625 169.99414062 C-28.05919785 173.56458379 -35.57243795 177.01282537 -43.08691406 180.46154785 C-47.14138201 182.32396104 -51.19154659 184.19568809 -55.2421875 186.06640625 C-56.86716726 186.81645011 -58.49216725 187.56645013 -60.1171875 188.31640625 C-60.9215625 188.68765625 -61.7259375 189.05890625 -62.5546875 189.44140625 C-77.9921875 196.56640625 -93.4296875 203.69140625 -108.8671875 210.81640625 C-109.67147186 211.18761597 -110.47575623 211.55882568 -111.30441284 211.94128418 C-112.93032361 212.6917014 -114.55623914 213.44210829 -116.18215942 214.19250488 C-120.23076378 216.06103696 -124.27928662 217.92974523 -128.32763672 219.79882812 C-137.53798568 224.05088407 -146.75055247 228.29807698 -155.96548462 232.54019165 C-162.52009715 235.55858625 -169.06941535 238.58831029 -175.61654663 241.62289429 C-179.99701634 243.65103329 -184.38803635 245.65344097 -188.7890625 247.63671875 C-202.9577314 253.54533724 -202.9577314 253.54533724 -212.9921875 264.56640625 C-213.80349358 270.80187299 -213.30906127 275.63659564 -209.61328125 280.80859375 C-205.11880896 285.68211792 -200.47694915 287.68407246 -193.9921875 288.56640625 C-191.58920894 288.65572202 -189.18405834 288.69369324 -186.77942085 288.6950407 C-186.07253111 288.69679374 -185.36564136 288.69854678 -184.63733071 288.70035294 C-182.268709 288.70500475 -179.9001489 288.70254955 -177.53152466 288.70011902 C-175.81613041 288.7019874 -174.10073658 288.70428821 -172.38534343 288.70698434 C-167.67128488 288.71310533 -162.95724405 288.7129684 -158.24318242 288.71178997 C-153.15924 288.71158604 -148.07530329 288.71710394 -142.99136353 288.72184753 C-133.0312353 288.73015609 -123.071113 288.73290246 -113.1109816 288.73345991 C-105.016226 288.73393494 -96.92147236 288.73598902 -88.82671738 288.73916054 C-65.88227877 288.74796737 -42.93784484 288.75257982 -19.99340452 288.75183006 C-18.75630857 288.75179011 -17.51921262 288.75175015 -16.24462891 288.75170898 C-15.00602465 288.7516681 -13.7674204 288.75162722 -12.49128269 288.7515851 C7.58797057 288.75117854 27.66720508 288.76075064 47.74645291 288.77484735 C68.35810902 288.78920381 88.96975597 288.79611795 109.5814172 288.79525357 C121.15557276 288.79492137 132.72970866 288.79767873 144.30385971 288.80843163 C154.15708647 288.81752698 164.01028467 288.81971979 173.86351381 288.8129222 C178.89127816 288.80965223 183.91898766 288.80961754 188.94674683 288.81827545 C193.54957827 288.82612018 198.15231121 288.82472979 202.7551402 288.81599132 C204.41996475 288.81445187 206.08479658 288.81628921 207.74961255 288.8218514 C210.01431513 288.82891649 212.2786726 288.82361407 214.54336357 288.81529522 C216.42949216 288.81562127 216.42949216 288.81562127 218.35372436 288.81595391 C225.76694059 288.30968512 232.40369096 286.67453423 237.48828125 280.87890625 C240.6192974 276.52881098 241.97049089 272.54481006 241.5859375 267.15942383 C240.44718889 262.05188625 236.31605418 258.25742806 232.18359375 255.22998047 C230.20573129 254.05211133 228.20112895 253.01460553 226.1328125 252.00390625 C225.33383545 251.59809326 224.5348584 251.19228027 223.71166992 250.77416992 C213.57256333 245.71068124 203.19627459 241.11981504 192.86181641 236.47200012 C183.86734112 232.42608664 174.92754891 228.27419285 166.0078125 224.06640625 C155.21324739 218.97869848 144.38071596 213.98442541 133.5078125 209.06640625 C122.49090583 204.0826024 111.51224934 199.02529432 100.5703125 193.87890625 C99.90009064 193.56370026 99.22986877 193.24849426 98.53933716 192.92373657 C97.87288177 192.6102829 97.20642639 192.29682922 96.51977539 191.97387695 C95.19548873 191.35104558 93.87118875 190.72824252 92.546875 190.10546875 C91.90203659 189.80221176 91.25719818 189.49895477 90.59281921 189.18650818 C83.54687824 185.8755539 76.48059789 182.60908688 69.40722656 179.35717773 C63.47053369 176.62774253 57.54023891 173.88558621 51.6179657 171.12501526 C48.07019102 169.47194545 44.52053429 167.82293878 40.97073364 166.17422485 C39.21799879 165.35895663 37.466091 164.54190768 35.71505737 163.72299194 C33.24840884 162.56970646 30.77883768 161.42290373 28.30859375 160.27734375 C27.57422089 159.93205124 26.83984802 159.58675873 26.08322144 159.23100281 C18.25903544 155.61878402 13.28375628 153.61192265 5.1640625 157.67578125 Z " fill="#7f22fe" transform="translate(241.9921875,99.43359375)"/>
</svg>
