<?xml version="1.0" encoding="UTF-8"?>
<svg version="1.1" xmlns="http://www.w3.org/2000/svg" width="512" height="512">
<path d="M0 0 C2.9475842 1.43901234 5.42300504 3.35906845 8 5.375 C9.49878098 6.48777868 11.00014233 7.59708932 12.50390625 8.703125 C13.25559082 9.26064453 14.00727539 9.81816406 14.78173828 10.39257812 C68.09574183 49.02557387 139.45147374 69.92381072 205 70.203125 C206.10640839 70.21009399 207.21281677 70.21706299 208.35275269 70.22424316 C211.9018743 70.24153456 215.45083802 70.24796249 219 70.25 C220.81712494 70.25151062 220.81712494 70.25151062 222.67095947 70.25305176 C240.3452427 70.24309854 257.51590298 69.72984797 275 67 C276.95553561 66.72906801 278.91126638 66.459541 280.8671875 66.19140625 C336.17182963 58.19300969 389.09320626 36.81003257 434.2421875 3.99609375 C438.96932859 0.57460778 442.1175057 -0.92320836 448 0 C450.5 1.5 450.5 1.5 452 4 C452.77403846 9.41826923 452.77403846 9.41826923 452 12 C448.16691621 16.5029431 443.40496787 19.8272379 438.625 23.25 C437.83931641 23.81485107 437.05363281 24.37970215 436.24414062 24.96166992 C431.11089748 28.60840279 425.89507439 32.06560013 420.5 35.3125 C419.87174316 35.69116211 419.24348633 36.06982422 418.59619141 36.45996094 C414.26751135 39 414.26751135 39 412 39 C411.49529063 58.195534 412.13703621 72.53797684 423 89 C423 89.66 423 90.32 423 91 C423.82242187 91.04898438 424.64484375 91.09796875 425.4921875 91.1484375 C444.0275489 92.38983584 444.0275489 92.38983584 449.0625 96.5 C452.16704709 100.50586722 452.52625136 103.34113205 452.46875 108.34375 C451.48365217 113.92597105 446.98479627 117.41963996 442.71875 120.81640625 C438.23291029 124.57865777 438.23291029 124.57865777 436.68359375 130.04296875 C436.94063113 133.41609005 437.40378417 136.6707948 438 140 C439.00582655 146.64399189 439.6057514 151.11060605 436 157 C432.51256364 160.27607658 428.65983264 160.72416365 424.0234375 160.640625 C419.31970134 159.64396773 415.41404862 157.28313363 411.35400391 154.75854492 C408.4043257 152.98364559 406.41448703 151.99577054 402.9375 152.03125 C399.54395119 153.15039907 396.80001016 154.70319578 393.75 156.5625 C387.95714775 159.78295553 383.57444703 161.31488941 377 160 C373.13887611 158.60342327 372.27095557 157.50347325 370.3203125 153.87890625 C368.65399163 149.81426041 369.0522667 146.24429712 369.8125 142 C370.24380926 139.33558064 370.63114108 136.6748906 371 134 C371.16757812 132.83082031 371.33515625 131.66164063 371.5078125 130.45703125 C370.75248148 125.31497009 367.80863008 123.07685579 364.0625 119.6875 C362.7600636 118.46399914 361.45920284 117.23881814 360.16015625 116.01171875 C359.28822632 115.21447388 359.28822632 115.21447388 358.39868164 114.40112305 C355.82798374 111.82593798 355.81328686 109.70519475 355.75 106.1875 C355.81710219 101.95396179 355.99186836 99.20220465 359 96 C366.63375729 91.51931637 376.29965681 90.8299181 385 91 C385.24492187 90.14535156 385.48984375 89.29070312 385.7421875 88.41015625 C386.87163824 85.34801184 388.26156547 82.93068448 390.02148438 80.20336914 C396.28101451 70.18673607 395.86333114 60.49060543 395 49 C393.906875 49.54527344 392.81375 50.09054687 391.6875 50.65234375 C360.77329879 65.82568753 326.25750992 77.71781126 292 82 C292 91.9 292 101.8 292 112 C295.3 112.66 298.6 113.32 302 114 C304.85411588 115.17010845 307.47678254 116.32794582 310.1875 117.75 C310.88166016 118.10924561 311.57582031 118.46849121 312.29101562 118.83862305 C326.23383554 126.23379184 333.97143211 138.44099956 339.10546875 153.171875 C342.77746883 168.88611113 340.48161181 185.51050634 331.98828125 199.20092773 C323.32432081 212.22916825 310.20731894 220.70886381 295 224 C279.63322281 226.58966579 263.69185684 223.65941978 250.87109375 214.63427734 C238.97319691 205.73500938 231.333739 193.42583586 228 179 C227.58535757 175.36301251 227.5220582 171.78305666 227.5625 168.125 C227.57385986 166.67710083 227.57385986 166.67710083 227.58544922 165.19995117 C227.75457702 157.8700511 228.76574258 151.64819581 232 145 C232.45890625 144.03835938 232.9178125 143.07671875 233.390625 142.0859375 C240.34464769 128.50729319 251.39220039 118.91370573 266 114 C270.95 113.01 270.95 113.01 276 112 C275.67 103.09 275.34 94.18 275 85 C270.689375 85.495 266.37875 85.99 261.9375 86.5 C232.31717911 89.50202751 201.57034749 89.59595974 172 86 C171.43298991 102.11839995 173.2112198 113.78030078 182.09790039 127.40966797 C183 129 183 129 183 131 C184.23363281 131.07347656 184.23363281 131.07347656 185.4921875 131.1484375 C204.0275489 132.38983584 204.0275489 132.38983584 209.0625 136.5 C212.16704709 140.50586722 212.52625136 143.34113205 212.46875 148.34375 C211.48365217 153.92597105 206.98479627 157.41963996 202.71875 160.81640625 C198.23291029 164.57865777 198.23291029 164.57865777 196.68359375 170.04296875 C196.94063113 173.41609005 197.40378417 176.6707948 198 180 C199.00582655 186.64399189 199.6057514 191.11060605 196 197 C192.51256364 200.27607658 188.65983264 200.72416365 184.0234375 200.640625 C179.31970134 199.64396773 175.41404862 197.28313363 171.35400391 194.75854492 C168.4043257 192.98364559 166.41448703 191.99577054 162.9375 192.03125 C159.54395119 193.15039907 156.80001016 194.70319578 153.75 196.5625 C147.95714775 199.78295553 143.57444703 201.31488941 137 200 C133.13887611 198.60342327 132.27095557 197.50347325 130.3203125 193.87890625 C128.65399163 189.81426041 129.0522667 186.24429712 129.8125 182 C130.24380926 179.33558064 130.63114108 176.6748906 131 174 C131.16757813 172.83082031 131.33515625 171.66164063 131.5078125 170.45703125 C130.75248148 165.31497009 127.80863008 163.07685579 124.0625 159.6875 C122.7600636 158.46399914 121.45920284 157.23881814 120.16015625 156.01171875 C119.57886963 155.48022217 118.99758301 154.94872559 118.39868164 154.40112305 C115.82798374 151.82593798 115.81328686 149.70519475 115.75 146.1875 C115.81710219 141.95396179 115.99186836 139.20220465 119 136 C126.63375729 131.51931637 136.29965681 130.8299181 145 131 C145.36931641 129.70642578 145.36931641 129.70642578 145.74609375 128.38671875 C147.09244455 124.75031331 148.93355981 122.04647992 151.0625 118.8125 C157.468859 108.11869942 156.18914872 95.05429031 156 83 C155.35313232 82.9582666 154.70626465 82.9165332 154.03979492 82.87353516 C146.63100197 82.30854144 139.55148854 81.02262891 132.3125 79.375 C131.13768066 79.10921143 129.96286133 78.84342285 128.75244141 78.56958008 C102.68446153 72.54593837 77.34430127 64.10856466 53 53 C52.67 61.91 52.34 70.82 52 80 C55.3 80.66 58.6 81.32 62 82 C64.85411588 83.17010845 67.47678254 84.32794582 70.1875 85.75 C70.88166016 86.10924561 71.57582031 86.46849121 72.29101562 86.83862305 C86.23383554 94.23379184 93.97143211 106.44099956 99.10546875 121.171875 C102.77746883 136.88611113 100.48161181 153.51050634 91.98828125 167.20092773 C83.32432081 180.22916825 70.20731894 188.70886381 55 192 C39.63322281 194.58966579 23.69185684 191.65941978 10.87109375 182.63427734 C-1.02680309 173.73500938 -8.666261 161.42583586 -12 147 C-12.41464243 143.36301251 -12.4779418 139.78305666 -12.4375 136.125 C-12.42992676 135.15973389 -12.42235352 134.19446777 -12.41455078 133.19995117 C-12.24542298 125.8700511 -11.23425742 119.64819581 -8 113 C-7.54109375 112.03835938 -7.0821875 111.07671875 -6.609375 110.0859375 C0.34464769 96.50729319 11.39220039 86.91370573 26 82 C29.31980251 81.25580831 32.65283784 80.60827724 36 80 C38.23581342 60.06671697 38.23581342 60.06671697 33.39404297 41.42480469 C29.15346554 37.63561385 24.02291101 35.91829013 18.71337891 34.08886719 C13.95022736 32.17743513 9.95844546 29.16985259 5.8125 26.1875 C4.29825359 25.1392124 2.78393372 24.09103089 1.26953125 23.04296875 C-1.6662994 20.9639528 -4.58782485 18.86640007 -7.48828125 16.73828125 C-8.13966064 16.26044189 -8.79104004 15.78260254 -9.4621582 15.2902832 C-11 14 -11 14 -12 12 C-12.56872038 4.9478673 -12.56872038 4.9478673 -10.5 1.5 C-7.02236388 -0.58658167 -3.90867755 -0.68515177 0 0 Z M403 91 C401.99515796 92.95585325 400.99626195 94.91476237 400 96.875 C399.443125 97.96554687 398.88625 99.05609375 398.3125 100.1796875 C396.85935906 102.78375082 396.85935906 102.78375082 397 105 C395.86820312 105.19335938 394.73640625 105.38671875 393.5703125 105.5859375 C392.08846798 105.84854286 390.60670108 106.11158648 389.125 106.375 C388.37863281 106.50132812 387.63226563 106.62765625 386.86328125 106.7578125 C382.49009468 107.45268694 382.49009468 107.45268694 379 110 C379.95712891 110.93972656 379.95712891 110.93972656 380.93359375 111.8984375 C381.75988281 112.71570313 382.58617187 113.53296875 383.4375 114.375 C384.26121094 115.18710937 385.08492188 115.99921875 385.93359375 116.8359375 C389.33862609 120.40188819 389.14753736 122.74866403 389.1015625 127.46875 C388.94600337 131.34576212 388.48870777 135.15142628 388 139 C390.41409282 138.06551246 392.77940926 137.11173848 395.08984375 135.94140625 C400.16186232 133.43574237 403.36164228 132.28835569 409 134 C411.42460385 135.22632856 413.75998394 136.53059265 416.08203125 137.94140625 C417.92671433 139.16107292 417.92671433 139.16107292 420 139 C419.835 137.700625 419.67 136.40125 419.5 135.0625 C419.33074683 133.37525746 419.16415766 131.68774592 419 130 C418.8453125 128.85144531 418.8453125 128.85144531 418.6875 127.6796875 C418.38621043 124.07676639 418.42341139 121.87183907 420.45703125 118.796875 C422.23299233 116.77788767 424.09938271 114.90061729 426 113 C427.02163702 111.68317215 428.02844397 110.35419964 429 109 C428.45472656 108.87882812 427.90945313 108.75765625 427.34765625 108.6328125 C425.76147399 108.28032755 424.17692972 107.92042206 422.59375 107.5546875 C420.89637916 107.19169554 419.18652147 106.8819954 417.46875 106.6328125 C415.17618074 106.26808557 413.14796702 105.88336306 411 105 C409.6875 102.375 409.6875 102.375 409 99 C408.3285195 97.52433535 407.61838253 96.06578264 406.875 94.625 C406.52179688 93.93664062 406.16859375 93.24828125 405.8046875 92.5390625 C405.53914063 92.03117187 405.27359375 91.52328125 405 91 C404.34 91 403.68 91 403 91 Z M13 111 C5.54618582 121.12914583 3.75610992 131.62329375 5 144 C7.36065489 154.99850575 13.99736817 163.47226142 23 170 C31.83384246 175.39099511 42.09589807 176.8537834 52.1875 175 C61.59614327 172.61647704 70.09780032 167.86000251 76 160 C82.56277113 148.56711817 84.95078919 137.77744945 82.3515625 124.75 C78.64930871 113.61159544 70.79209628 105.24794926 60.578125 99.6796875 C43.41292264 92.24143314 25.20529567 97.29618938 13 111 Z M253 143 C245.54618582 153.12914583 243.75610992 163.62329375 245 176 C247.36065489 186.99850575 253.99736817 195.47226142 263 202 C271.83384246 207.39099511 282.09589807 208.8537834 292.1875 207 C301.59614327 204.61647704 310.09780032 199.86000251 316 192 C322.56277113 180.56711817 324.95078919 169.77744945 322.3515625 156.75 C318.64930871 145.61159544 310.79209628 137.24794926 300.578125 131.6796875 C283.41292264 124.24143314 265.20529567 129.29618938 253 143 Z M163 131 C161.99515796 132.95585325 160.99626195 134.91476237 160 136.875 C159.443125 137.96554687 158.88625 139.05609375 158.3125 140.1796875 C156.85935906 142.78375082 156.85935906 142.78375082 157 145 C155.86820313 145.19335938 154.73640625 145.38671875 153.5703125 145.5859375 C152.08846798 145.84854286 150.60670108 146.11158648 149.125 146.375 C148.37863281 146.50132812 147.63226563 146.62765625 146.86328125 146.7578125 C142.49009468 147.45268694 142.49009468 147.45268694 139 150 C139.95712891 150.93972656 139.95712891 150.93972656 140.93359375 151.8984375 C141.75988281 152.71570313 142.58617187 153.53296875 143.4375 154.375 C144.26121094 155.18710937 145.08492187 155.99921875 145.93359375 156.8359375 C149.33862609 160.40188819 149.14753736 162.74866403 149.1015625 167.46875 C148.94600337 171.34576212 148.48870777 175.15142628 148 179 C150.41409282 178.06551246 152.77940926 177.11173848 155.08984375 175.94140625 C160.16186232 173.43574237 163.36164228 172.28835569 169 174 C171.42460385 175.22632856 173.75998394 176.53059265 176.08203125 177.94140625 C177.92671433 179.16107292 177.92671433 179.16107292 180 179 C179.835 177.700625 179.67 176.40125 179.5 175.0625 C179.33074683 173.37525746 179.16415766 171.68774592 179 170 C178.8453125 168.85144531 178.8453125 168.85144531 178.6875 167.6796875 C178.38621043 164.07676639 178.42341139 161.87183907 180.45703125 158.796875 C182.23299233 156.77788767 184.09938271 154.90061729 186 153 C187.02163702 151.68317215 188.02844397 150.35419964 189 149 C188.45472656 148.87882812 187.90945312 148.75765625 187.34765625 148.6328125 C185.76147399 148.28032755 184.17692972 147.92042206 182.59375 147.5546875 C180.89637916 147.19169554 179.18652147 146.8819954 177.46875 146.6328125 C175.17618074 146.26808557 173.14796702 145.88336306 171 145 C169.6875 142.375 169.6875 142.375 169 139 C168.3285195 137.52433535 167.61838253 136.06578264 166.875 134.625 C166.52179688 133.93664062 166.16859375 133.24828125 165.8046875 132.5390625 C165.53914063 132.03117188 165.27359375 131.52328125 165 131 C164.34 131 163.68 131 163 131 Z " fill="#7f22fe" transform="translate(36,264)"/>
<path d="M0 0 C2.66053508 2.66053508 2.78483954 4.27055195 3 8 C0.97469021 13.01107578 -1.9377062 16.42942354 -5.625 20.25 C-6.71556094 21.40166503 -7.80539969 22.55401435 -8.89453125 23.70703125 C-9.42771973 24.2685791 -9.9609082 24.83012695 -10.51025391 25.40869141 C-12.50160251 27.53579894 -14.40294692 29.7369674 -16.3125 31.9375 C-25.55949039 42.24176878 -36.11196544 51.47825704 -47 60 C-47.52335937 60.41233887 -48.04671875 60.82467773 -48.5859375 61.24951172 C-51.26881874 63.36007645 -53.9660228 65.45181459 -56.6640625 67.54296875 C-57.17751221 67.95192383 -57.69096191 68.36087891 -58.2199707 68.78222656 C-60 70 -60 70 -62.36401367 71.00683594 C-65.27880786 72.39661811 -66.95653341 73.47478211 -69 76 C-70.28737822 81.96090199 -70.16999265 87.80256633 -70.0625 93.875 C-70.06557677 95.53386677 -70.07269647 97.19273128 -70.08398438 98.8515625 C-70.10277012 102.9025128 -70.06629106 106.94958479 -70 111 C-69.37311279 111.10086914 -68.74622559 111.20173828 -68.1003418 111.30566406 C-62.15648517 112.36180156 -57.14982746 113.95001478 -51.8125 116.75 C-51.11833984 117.10924561 -50.42417969 117.46849121 -49.70898438 117.83862305 C-35.76616446 125.23379184 -28.02856789 137.44099956 -22.89453125 152.171875 C-19.4746749 166.80706811 -21.0949342 182.92506997 -28.71484375 195.92578125 C-30.38335003 198.39020519 -32.1122871 200.70034975 -34 203 C-35.16402344 204.48113281 -35.16402344 204.48113281 -36.3515625 205.9921875 C-45.40060932 216.76137152 -59.38845693 222.31916246 -73.0625 223.9375 C-89.8910877 224.68192814 -105.06547107 219.56436612 -117.57226562 208.38671875 C-127.01965596 199.21073087 -133.80258432 185.86718352 -134.43359375 172.6328125 C-134.45694608 170.79702306 -134.45779605 168.96082577 -134.4375 167.125 C-134.42614014 165.67710083 -134.42614014 165.67710083 -134.41455078 164.19995117 C-134.24542298 156.8700511 -133.23425742 150.64819581 -130 144 C-129.54109375 143.03835937 -129.0821875 142.07671875 -128.609375 141.0859375 C-121.65535231 127.50729319 -110.60779961 117.91370573 -96 113 C-91.05 112.01 -91.05 112.01 -86 111 C-86.33 103.41 -86.66 95.82 -87 88 C-88.87300781 89.05058594 -90.74601562 90.10117188 -92.67578125 91.18359375 C-125.97215904 109.7988914 -160.26675902 124.50478829 -197 135 C-197.33 145.56 -197.66 156.12 -198 167 C-194.7 167.66 -191.4 168.32 -188 169 C-185.14588412 170.17010845 -182.52321746 171.32794582 -179.8125 172.75 C-179.11833984 173.10924561 -178.42417969 173.46849121 -177.70898438 173.83862305 C-163.76616446 181.23379184 -156.02856789 193.44099956 -150.89453125 208.171875 C-147.22253117 223.88611113 -149.51838819 240.51050634 -158.01171875 254.20092773 C-166.67567919 267.22916825 -179.79268106 275.70886381 -195 279 C-210.36677719 281.58966579 -226.30814316 278.65941978 -239.12890625 269.63427734 C-251.02680309 260.73500938 -258.666261 248.42583586 -262 234 C-262.41464243 230.36301251 -262.4779418 226.78305666 -262.4375 223.125 C-262.42614014 221.67710083 -262.42614014 221.67710083 -262.41455078 220.19995117 C-262.24546608 212.87191916 -261.23788718 206.64514077 -258 200 C-257.52949219 199.02675781 -257.05898438 198.05351562 -256.57421875 197.05078125 C-249.43683282 183.23708084 -238.68304002 174.19197586 -224 169 C-220.7 168.34 -217.4 167.68 -214 167 C-214 157.76 -214 148.52 -214 139 C-217.114375 139.7425 -220.22875 140.485 -223.4375 141.25 C-257.36307686 149.03803499 -291.30292933 151.65510542 -326 151 C-325.97704958 155.33447981 -325.89952963 159.66637051 -325.8125 164 C-325.80669922 165.22074219 -325.80089844 166.44148437 -325.79492188 167.69921875 C-325.6091624 175.33599717 -324.67201511 179.97776982 -320 186 C-319.03120001 187.77493726 -318.08724723 189.56408017 -317.1875 191.375 C-316.55908203 192.62410156 -316.55908203 192.62410156 -315.91796875 193.8984375 C-315 196 -315 196 -315 198 C-314.36497559 198.06469482 -313.72995117 198.12938965 -313.07568359 198.19604492 C-310.17262283 198.50445873 -307.27430606 198.84565244 -304.375 199.1875 C-303.37597656 199.28869141 -302.37695312 199.38988281 -301.34765625 199.49414062 C-294.99726835 200.27216828 -291.41642904 201.28278426 -287 206 C-285.09767265 209.8046547 -285.27698632 213.87456898 -286 218 C-288.39639464 222.07912943 -291.76587337 225.10670956 -295.57421875 227.86328125 C-298.44936422 230.13081558 -300.25465106 231.75926415 -302 235 C-302.19534447 239.66469112 -301.00165051 244.10571141 -299.875 248.59765625 C-298.81378717 253.07382922 -299.08139755 256.49447368 -300 261 C-302.14760246 264.40654184 -304.11272577 266.77828524 -308 268 C-314.20526528 268.57398704 -317.9139803 266.95922209 -323.1875 264.0625 C-324.5749617 263.32072685 -325.96423196 262.58232458 -327.35546875 261.84765625 C-327.96028076 261.51773682 -328.56509277 261.18781738 -329.18823242 260.84790039 C-331.16554602 259.92252509 -332.83394634 259.30773229 -335 259 C-337.64411198 260.19897301 -340.05995652 261.43187464 -342.5625 262.875 C-348.58050993 266.25616378 -352.90820077 268.60099994 -360 268 C-364.94315223 265.52842388 -367.03871092 263.12446568 -369 258 C-368.92018006 255.19774995 -368.71476083 252.79167885 -368.25 250.0625 C-368.14945312 249.38509766 -368.04890625 248.70769531 -367.9453125 248.00976562 C-367.84476562 247.33751953 -367.74421875 246.66527344 -367.640625 245.97265625 C-367.54378418 245.30532471 -367.44694336 244.63799316 -367.34716797 243.95043945 C-367 242 -367 242 -365.9609375 238.484375 C-366.00614222 234.45211395 -366.50426023 233.94901418 -369.1484375 231.10546875 C-370.5376269 229.77858079 -371.94746762 228.47304664 -373.375 227.1875 C-374.78018981 225.87013456 -376.18391037 224.55119963 -377.5859375 223.23046875 C-378.2154834 222.65707764 -378.8450293 222.08368652 -379.49365234 221.49291992 C-382.0950779 218.91468374 -382.23494847 216.80515434 -382.375 213.25 C-382.32425867 209.73869978 -382.10744169 207.35706859 -380 204.5 C-372.95376004 198.62813337 -361.85524173 199.01018534 -353 198 C-352.74347656 197.15050781 -352.48695313 196.30101562 -352.22265625 195.42578125 C-350.92406446 191.78723492 -349.29167243 188.57455819 -347.4375 185.1875 C-346.81746094 184.04667969 -346.19742188 182.90585938 -345.55859375 181.73046875 C-344 179 -344 179 -343 178 C-342.91241997 176.00035018 -342.89303424 173.9976389 -342.90234375 171.99609375 C-342.90556641 170.78115234 -342.90878906 169.56621094 -342.91210938 168.31445312 C-342.92048828 167.03505859 -342.92886719 165.75566406 -342.9375 164.4375 C-342.94201172 163.15423828 -342.94652344 161.87097656 -342.95117188 160.54882812 C-342.96300455 157.36583978 -342.97948932 154.18294238 -343 151 C-343.55945313 150.96559814 -344.11890625 150.93119629 -344.6953125 150.89575195 C-379.23056146 148.65748471 -412.9155843 142.40107187 -445.6875 131.25 C-446.76241699 130.88551758 -447.83733398 130.52103516 -448.94482422 130.14550781 C-458.63416199 126.70313948 -458.63416199 126.70313948 -462 123 C-462.92588355 119.90645968 -462.69554955 117.13859548 -462 114 C-460.0625 111.375 -460.0625 111.375 -457 110 C-449.49467269 110.23789892 -443.02207253 112.50465193 -435.98764038 115.0067749 C-417.44086394 121.56487131 -398.66042293 126.03340695 -379.25 129.25 C-378.34209717 129.40130371 -377.43419434 129.55260742 -376.4987793 129.70849609 C-357.19545027 132.69224357 -337.87932686 133.40699568 -318.375 133.375 C-317.17644379 133.37478851 -315.97788757 133.37457703 -314.74301147 133.37435913 C-294.23584779 133.33843571 -274.25716654 132.13730869 -254 129 C-252.77506836 128.81808105 -251.55013672 128.63616211 -250.28808594 128.44873047 C-164.40091782 115.44362342 -66.89120568 73.7721895 -13.859375 2.00390625 C-9.46477059 -2.73229556 -5.7463066 -2.16841759 0 0 Z M-109 142 C-116.45381418 152.12914583 -118.24389008 162.62329375 -117 175 C-114.63934511 185.99850575 -108.00263183 194.47226142 -99 201 C-90.16615754 206.39099511 -79.90410193 207.8537834 -69.8125 206 C-60.40385673 203.61647704 -51.90219968 198.86000251 -46 191 C-39.43722887 179.56711817 -37.04921081 168.77744945 -39.6484375 155.75 C-43.35069129 144.61159544 -51.20790372 136.24794926 -61.421875 130.6796875 C-78.58707736 123.24143314 -96.79470433 128.29618938 -109 142 Z M-237 198 C-244.45381418 208.12914583 -246.24389008 218.62329375 -245 231 C-242.63934511 241.99850575 -236.00263183 250.47226142 -227 257 C-218.16615754 262.39099511 -207.90410193 263.8537834 -197.8125 262 C-188.40385673 259.61647704 -179.90219968 254.86000251 -174 247 C-167.43722887 235.56711817 -165.04921081 224.77744945 -167.6484375 211.75 C-171.35069129 200.61159544 -179.20790372 192.24794926 -189.421875 186.6796875 C-206.58707736 179.24143314 -224.79470433 184.29618938 -237 198 Z M-335 199 C-335.67095703 200.37285156 -335.67095703 200.37285156 -336.35546875 201.7734375 C-336.96532109 202.9743775 -337.57604421 204.17487559 -338.1875 205.375 C-338.47947266 205.97828125 -338.77144531 206.5815625 -339.07226562 207.203125 C-340.50164767 209.9696709 -341.59219426 211.7630318 -344.3125 213.34375 C-347.46941029 214.11462344 -350.59432552 214.66990462 -353.8125 215.125 C-354.97394531 215.29257813 -356.13539063 215.46015625 -357.33203125 215.6328125 C-358.21246094 215.75398438 -359.09289062 215.87515625 -360 216 C-359.0919838 217.13199353 -358.17316174 218.25532363 -357.25 219.375 C-356.48429687 220.31472656 -356.48429687 220.31472656 -355.703125 221.2734375 C-354.08512608 223.10582878 -354.08512608 223.10582878 -351.859375 224.0390625 C-350 225 -350 225 -349 228 C-348.60773898 234.39154729 -349.18264517 240.66550008 -350 247 C-349.2265625 246.566875 -348.453125 246.13375 -347.65625 245.6875 C-335.8151172 239.35659731 -335.8151172 239.35659731 -330 241 C-325.86907464 242.77916092 -321.92299116 244.80312495 -318 247 C-318.165 245.72125 -318.33 244.4425 -318.5 243.125 C-318.57734375 242.3 -318.6546875 241.475 -318.734375 240.625 C-318.9612319 238.02121696 -318.9612319 238.02121696 -319.453125 235.5625 C-319.80446616 232.67780414 -319.81584902 230.80968414 -319 228 C-316.35693682 224.72142322 -313.54680381 221.94179871 -310.40625 219.15234375 C-309.6121875 218.44207031 -308.818125 217.73179687 -308 217 C-308 216.67 -308 216.34 -308 216 C-309.10859375 215.82984375 -310.2171875 215.6596875 -311.359375 215.484375 C-312.82305768 215.24042789 -314.28659196 214.99558924 -315.75 214.75 C-316.47960937 214.64042969 -317.20921875 214.53085938 -317.9609375 214.41796875 C-322.49701283 213.63446483 -325.12860884 212.84658061 -328 209 C-329.484375 206.421875 -329.484375 206.421875 -330.75 203.75 C-331.17796875 202.85796875 -331.6059375 201.9659375 -332.046875 201.046875 C-332.36140625 200.37140625 -332.6759375 199.6959375 -333 199 C-333.66 199 -334.32 199 -335 199 Z " fill="#7f22fe" transform="translate(486,25)"/>
<path d="M0 0 C0.66 -0.0103125 1.32 -0.020625 2 -0.03125 C5.15312765 0.80629953 6.15596991 1.77475199 8 4.5 C8.48952097 7.92968726 8.37582359 11.29469075 8.25 14.75 C8.23195312 15.68585938 8.21390625 16.62171875 8.1953125 17.5859375 C8.14825673 19.89167015 8.08253713 22.19530945 8 24.5 C8.58491211 24.47905273 9.16982422 24.45810547 9.77246094 24.43652344 C12.43146465 24.35319885 15.09019355 24.30129103 17.75 24.25 C18.67039063 24.21648437 19.59078125 24.18296875 20.5390625 24.1484375 C27.33487804 24.04994742 27.33487804 24.04994742 30.609375 26.265625 C32.05976504 28.59602697 32.54245545 29.78285134 32.5 32.5 C32.51546875 33.49 32.51546875 33.49 32.53125 34.5 C31.69370047 37.65312765 30.72524801 38.65596991 28 40.5 C24.57031274 40.98952097 21.20530925 40.87582359 17.75 40.75 C16.34621094 40.72292969 16.34621094 40.72292969 14.9140625 40.6953125 C12.60832985 40.64825673 10.30469055 40.58253713 8 40.5 C8.02094727 41.08491211 8.04189453 41.66982422 8.06347656 42.27246094 C8.14680115 44.93146465 8.19870897 47.59019355 8.25 50.25 C8.30027344 51.63058594 8.30027344 51.63058594 8.3515625 53.0390625 C8.45005258 59.83487804 8.45005258 59.83487804 6.234375 63.109375 C3.90397303 64.55976504 2.71714866 65.04245545 0 65 C-0.66 65.0103125 -1.32 65.020625 -2 65.03125 C-5.15312765 64.19370047 -6.15596991 63.22524801 -8 60.5 C-8.48952097 57.07031274 -8.37582359 53.70530925 -8.25 50.25 C-8.23195312 49.31414062 -8.21390625 48.37828125 -8.1953125 47.4140625 C-8.14825673 45.10832985 -8.08253713 42.80469055 -8 40.5 C-8.58491211 40.52094727 -9.16982422 40.54189453 -9.77246094 40.56347656 C-12.43146465 40.64680115 -15.09019355 40.69870897 -17.75 40.75 C-19.13058594 40.80027344 -19.13058594 40.80027344 -20.5390625 40.8515625 C-27.33487804 40.95005258 -27.33487804 40.95005258 -30.609375 38.734375 C-32.05976504 36.40397303 -32.54245545 35.21714866 -32.5 32.5 C-32.51546875 31.51 -32.51546875 31.51 -32.53125 30.5 C-31.69370047 27.34687235 -30.72524801 26.34403009 -28 24.5 C-24.57031274 24.01047903 -21.20530925 24.12417641 -17.75 24.25 C-16.81414062 24.26804687 -15.87828125 24.28609375 -14.9140625 24.3046875 C-12.60832985 24.35174327 -10.30469055 24.41746287 -8 24.5 C-8.02094727 23.91508789 -8.04189453 23.33017578 -8.06347656 22.72753906 C-8.14680115 20.06853535 -8.19870897 17.40980645 -8.25 14.75 C-8.28351563 13.82960938 -8.31703125 12.90921875 -8.3515625 11.9609375 C-8.45005258 5.16512196 -8.45005258 5.16512196 -6.234375 1.890625 C-3.90397303 0.44023496 -2.71714866 -0.04245545 0 0 Z " fill="#7f22fe" transform="translate(160,71.5)"/>
<path d="M0 0 C0.66 -0.0103125 1.32 -0.020625 2 -0.03125 C4.98174986 0.76077731 6.16411059 2.04673186 8 4.5 C8.390625 7.515625 8.390625 7.515625 8.25 10.75 C8.21390625 11.82765625 8.1778125 12.9053125 8.140625 14.015625 C8.09421875 14.83546875 8.0478125 15.6553125 8 16.5 C8.81984375 16.45359375 9.6396875 16.4071875 10.484375 16.359375 C11.56203125 16.32328125 12.6396875 16.2871875 13.75 16.25 C15.35101563 16.18039062 15.35101563 16.18039062 16.984375 16.109375 C20 16.5 20 16.5 22.359375 18.265625 C24.09023982 20.62289805 24.54492653 21.62470206 24.5 24.5 C24.5103125 25.16 24.520625 25.82 24.53125 26.5 C23.73922269 29.48174986 22.45326814 30.66411059 20 32.5 C16.984375 32.890625 16.984375 32.890625 13.75 32.75 C12.67234375 32.71390625 11.5946875 32.6778125 10.484375 32.640625 C9.66453125 32.59421875 8.8446875 32.5478125 8 32.5 C8.04640625 33.31984375 8.0928125 34.1396875 8.140625 34.984375 C8.19476563 36.60085938 8.19476563 36.60085938 8.25 38.25 C8.29640625 39.31734375 8.3428125 40.3846875 8.390625 41.484375 C8 44.5 8 44.5 6.234375 46.859375 C3.87710195 48.59023982 2.87529794 49.04492653 0 49 C-0.99 49.01546875 -0.99 49.01546875 -2 49.03125 C-4.98174986 48.23922269 -6.16411059 46.95326814 -8 44.5 C-8.390625 41.484375 -8.390625 41.484375 -8.25 38.25 C-8.21390625 37.17234375 -8.1778125 36.0946875 -8.140625 34.984375 C-8.09421875 34.16453125 -8.0478125 33.3446875 -8 32.5 C-8.81984375 32.54640625 -9.6396875 32.5928125 -10.484375 32.640625 C-12.10085938 32.69476563 -12.10085938 32.69476563 -13.75 32.75 C-14.81734375 32.79640625 -15.8846875 32.8428125 -16.984375 32.890625 C-20 32.5 -20 32.5 -22.359375 30.734375 C-24.09023982 28.37710195 -24.54492653 27.37529794 -24.5 24.5 C-24.51546875 23.51 -24.51546875 23.51 -24.53125 22.5 C-23.73922269 19.51825014 -22.45326814 18.33588941 -20 16.5 C-16.984375 16.109375 -16.984375 16.109375 -13.75 16.25 C-12.67234375 16.28609375 -11.5946875 16.3221875 -10.484375 16.359375 C-9.25460937 16.42898438 -9.25460937 16.42898438 -8 16.5 C-8.04640625 15.68015625 -8.0928125 14.8603125 -8.140625 14.015625 C-8.17671875 12.93796875 -8.2128125 11.8603125 -8.25 10.75 C-8.29640625 9.68265625 -8.3428125 8.6153125 -8.390625 7.515625 C-8 4.5 -8 4.5 -6.234375 2.140625 C-3.87710195 0.40976018 -2.87529794 -0.04492653 0 0 Z " fill="#7f22fe" transform="translate(416,439.5)"/>
<path d="M0 0 C2.5 1.5 2.5 1.5 4 4 C4.791013 8.02098277 4.62153384 10.96411027 2.5 14.5 C-1.03588973 16.62153384 -3.97901723 16.791013 -8 16 C-10.5 14.5 -10.5 14.5 -12 12 C-12.791013 7.97901723 -12.62153384 5.03588973 -10.5 1.5 C-6.96411027 -0.62153384 -4.02098277 -0.791013 0 0 Z " fill="#7f22fe" transform="translate(60,208)"/>
</svg>
