<?xml version="1.0" encoding="UTF-8"?>
<svg version="1.1" xmlns="http://www.w3.org/2000/svg" width="512" height="512">
<path d="M0 0 C10.99758598 8.28626977 19.04579933 19.12866487 21 33 C22.39329541 48.27593608 19.66957261 61.69152012 10 74 C3.68441349 81.13334174 -4.2768505 85.41207219 -13 89 C-13.99 89 -14.98 89 -16 89 C-14.02826248 108.45793609 -7.07086247 122.65377108 8.0625 135.5625 C18.17614372 144.25391257 25.84001928 155.58954889 28 169 C28.23373279 172.27767107 28.23621435 175.52812701 28.1875 178.8125 C28.18685547 179.65748047 28.18621094 180.50246094 28.18554688 181.37304688 C28.16030104 184.90465912 28.12679176 187.61962472 27 191 C27.721875 191.165 28.44375 191.33 29.1875 191.5 C33.80059974 193.96031986 36.05662714 198.07209277 37.640625 202.98828125 C38.64522379 208.43713775 37.58626509 213.14933629 35 218 C31.89006845 221.7565575 28.48177375 225.12464989 24.9591217 228.49186707 C23.18755103 230.18608674 21.43609846 231.89902922 19.68835449 233.61779785 C15.34669462 237.87969849 10.97290136 242.10812268 6.59991455 246.33782959 C2.89728712 249.921637 -0.79250421 253.51778261 -4.46653748 257.13090515 C-6.18453586 258.81030456 -7.91969702 260.47044784 -9.65637207 262.13049316 C-17.29125722 269.5401362 -20.91961866 275.01491509 -21.44287109 285.81884766 C-21.25817605 292.39521303 -19.35955997 297.84675633 -16.9140625 303.8984375 C-16.49708099 304.97703033 -16.08009949 306.05562317 -15.65048218 307.16690063 C-14.32740909 310.57727686 -12.97705718 313.97602483 -11.625 317.375 C-10.72468136 319.67765079 -9.82622656 321.98103125 -8.9296875 324.28515625 C-7.66752427 327.52769583 -6.40276879 330.76892094 -5.1234436 334.00473022 C0.66521011 348.64753892 0.66521011 348.64753892 -1 354 C-4.06504635 356.96081384 -6.22797548 357.36286708 -10.421875 357.29296875 C-11.44667969 357.28330078 -12.47148437 357.27363281 -13.52734375 357.26367188 C-14.59082031 357.23853516 -15.65429688 357.21339844 -16.75 357.1875 C-17.82894531 357.17396484 -18.90789062 357.16042969 -20.01953125 357.14648438 C-22.6801942 357.11116584 -25.33984296 357.06184199 -28 357 C-27.99111755 357.69855606 -27.98223511 358.39711212 -27.9730835 359.11683655 C-27.89270751 365.72212577 -27.8319195 372.32727715 -27.79275131 378.93294621 C-27.77193689 382.32847638 -27.74373412 385.72360015 -27.69824219 389.11889648 C-27.64619211 393.02843243 -27.62700382 396.93780773 -27.609375 400.84765625 C-27.58872986 402.05833267 -27.56808472 403.26900909 -27.54681396 404.51637268 C-27.54502996 411.2517968 -27.88701404 415.56686005 -32 421 C-36.7989741 425.34192895 -41.70385586 426.1461953 -48 426 C-50.2109375 425.53515625 -50.2109375 425.53515625 -52.25 424.9375 C-56.58342318 423.8541442 -57.88571835 424.60114424 -62 426 C-68.03615762 426.24104456 -72.65178014 425.22633351 -77.52734375 421.64453125 C-83.04898009 415.4784599 -82.39241022 408.75374789 -82.29296875 400.9453125 C-82.28872391 399.68862762 -82.28447906 398.43194275 -82.28010559 397.13717651 C-82.26619122 393.81284265 -82.23928624 390.4891377 -82.20599365 387.16497803 C-82.17518246 383.76629034 -82.16157678 380.36753741 -82.14648438 376.96875 C-82.11345021 370.31232749 -82.06327623 363.65620002 -82 357 C-82.58491211 357.01571045 -83.16982422 357.0314209 -83.77246094 357.04760742 C-86.43154164 357.11010267 -89.09046764 357.14903569 -91.75 357.1875 C-93.13058594 357.22520508 -93.13058594 357.22520508 -94.5390625 357.26367188 C-95.42851562 357.27333984 -96.31796875 357.28300781 -97.234375 357.29296875 C-98.05131836 357.3086792 -98.86826172 357.32438965 -99.70996094 357.34057617 C-102.63660812 356.90532321 -103.92867487 356.10600006 -106 354 C-107.29571363 350.27595592 -106.92630682 347.7384901 -105.76831055 344.02954102 C-105.47437912 343.06826797 -105.18044769 342.10699493 -104.87760925 341.11659241 C-104.55061539 340.08940598 -104.22362152 339.06221954 -103.88671875 338.00390625 C-103.55710648 336.93760483 -103.2274942 335.87130341 -102.88789368 334.77268982 C-101.83190365 331.36582164 -100.75987449 327.96424209 -99.6875 324.5625 C-98.97616751 322.27571574 -98.26586907 319.98860956 -97.55664062 317.70117188 C-96.25064957 313.49874556 -94.94043535 309.29772538 -93.61987305 305.09985352 C-93.33856537 304.20460968 -93.05725769 303.30936584 -92.76742554 302.38699341 C-92.14130273 300.43950672 -91.47110305 298.50623644 -90.78833008 296.57788086 C-90.02908687 294.09511559 -89.78608309 292.20359049 -89.875 289.625 C-89.91625 288.42875 -89.9575 287.2325 -90 286 C-90.52843506 286.4031543 -91.05687012 286.80630859 -91.60131836 287.22167969 C-94.03980659 289.07374993 -96.48848698 290.91187258 -98.9375 292.75 C-99.76830078 293.38421875 -100.59910156 294.0184375 -101.45507812 294.671875 C-107.83798839 299.44043053 -114.11488508 302.49273133 -121.50390625 305.359375 C-126.0553802 307.49526222 -129.90161194 310.27331969 -133.9375 313.25 C-135.07735352 314.07177734 -135.07735352 314.07177734 -136.24023438 314.91015625 C-146.1772293 321.58882416 -146.1772293 321.58882416 -153 331 C-154.13562285 339.65493668 -152.22435874 346.56764193 -148.80078125 354.43359375 C-148.36871872 355.47338882 -147.93665619 356.5131839 -147.49150085 357.58448792 C-146.11823676 360.87752627 -144.71638473 364.15741583 -143.3125 367.4375 C-142.3892853 369.63262735 -141.46804453 371.82858598 -140.54882812 374.02539062 C-138.7998423 378.20113713 -137.04540573 382.37451478 -135.28662109 386.54614258 C-127.02311307 406.20706143 -127.02311307 406.20706143 -128.1640625 412.0625 C-130.32178161 417.0635686 -134.55375371 419.38400621 -139.375 421.4375 C-146.08444657 422.47862102 -152.27106596 421.86080338 -158 418 C-163.89553558 412.55909527 -168.07005905 405.58490542 -172.421875 398.9140625 C-175.61665112 394.02464486 -178.99894418 389.27138128 -182.3828125 384.51171875 C-184 382 -184 382 -184 380 C-187.11768393 382.93156646 -189.49014426 385.98666317 -191.86328125 389.54296875 C-192.58580078 390.61740234 -193.30832031 391.69183594 -194.05273438 392.79882812 C-194.80640407 393.92810891 -195.55965731 395.05766772 -196.3125 396.1875 C-212.00972175 419.70757695 -212.00972175 419.70757695 -220.28125 421.4921875 C-226.38827828 422.41578128 -231.50877257 421.94018477 -237 419 C-240.00831283 416.48284029 -241.75934496 414.76184844 -242.30236816 410.78634644 C-242.35289979 404.56204354 -241.27572398 399.8665835 -238.78125 394.1953125 C-238.44730728 393.39709579 -238.11336456 392.59887909 -237.76930237 391.776474 C-236.695386 389.21894921 -235.59771793 386.67238579 -234.5 384.125 C-233.75902145 382.36728209 -233.02001242 380.60873265 -232.28295898 378.84936523 C-230.84507944 375.42225857 -229.3995029 371.99862332 -227.94482422 368.57861328 C-225.61064342 363.08944861 -223.3129874 357.58652352 -221.0625 352.0625 C-220.75183594 351.32725098 -220.44117188 350.59200195 -220.12109375 349.83447266 C-217.39010981 343.13941448 -216.05058837 337.90816175 -218.42578125 331.04296875 C-220.94684593 325.39245558 -224.73424322 321.51640557 -229.1875 317.3125 C-229.90486328 316.60544922 -230.62222656 315.89839844 -231.36132812 315.16992188 C-237.76747914 308.94729533 -244.57260545 303.28155383 -252.25 298.6875 C-256.66707462 295.95422751 -260.77018867 292.95913116 -264.859375 289.76953125 C-265.45347168 289.30921509 -266.04756836 288.84889893 -266.65966797 288.37463379 C-268.10809666 287.25188298 -269.55428424 286.12624197 -271 285 C-273.6997173 313.66130639 -267.10392846 337.39372668 -257.8984375 364.38525391 C-255.49816272 371.43748551 -253.2784879 378.5396783 -251.13497925 385.67364502 C-250.58324529 387.49405239 -250.01184277 389.30846299 -249.43969727 391.12255859 C-247.20328483 398.41756202 -245.84376554 404.21012037 -248.125 411.6875 C-250.78157303 416.38077902 -253.76766766 419.25588922 -259 421 C-266.01559326 421.70155933 -273.2837191 421.57302472 -279 417 C-284.38336382 409.7547166 -286.56423324 401.65570019 -289.08203125 393.125 C-289.54467872 391.58912575 -290.008375 390.05356707 -290.47306824 388.51831055 C-291.68521042 384.50358774 -292.88318259 380.48477511 -294.078125 376.46490479 C-295.3032203 372.35291397 -296.54184673 368.24500485 -297.77929688 364.13671875 C-300.19936305 356.0950511 -302.60445556 348.04900634 -305 340 C-305.66 340 -306.32 340 -307 340 C-307.26673523 340.89091843 -307.53347046 341.78183685 -307.80828857 342.69975281 C-310.32684485 351.10457221 -312.85633234 359.50600636 -315.39808273 367.90384197 C-316.70436711 372.22113659 -318.00642343 376.53961219 -319.29882812 380.86108398 C-320.54675899 385.03327874 -321.8057804 389.20197816 -323.07248688 393.36850929 C-323.55326188 394.9568778 -324.03006187 396.54645521 -324.50276947 398.13724327 C-325.16674477 400.36918118 -325.8448622 402.59636032 -326.52636719 404.82299805 C-326.71770233 405.47827484 -326.90903748 406.13355164 -327.10617065 406.8086853 C-328.72936336 412.02623743 -331.01158465 415.60810925 -335.5 418.75 C-341.2726118 421.6363059 -348.08760689 422.16837678 -354.2890625 420.31640625 C-359.03480864 418.17459947 -361.51136328 415.67863703 -364 411 C-366.22839624 404.31481129 -364.54424581 398.42070517 -362.58203125 391.93359375 C-362.31791946 391.03563583 -362.05380768 390.13767792 -361.7816925 389.21250916 C-357.50296325 374.78384122 -352.9466188 360.4369743 -348.4362793 346.0793457 C-347.61787222 343.47344039 -346.80159824 340.86688384 -345.98750305 338.2596283 C-345.22970312 335.83339023 -344.46862562 333.40817268 -343.70378113 330.98414612 C-343.36284927 329.89117722 -343.02191742 328.79820831 -342.6706543 327.67211914 C-342.37120407 326.71841934 -342.07175385 325.76471954 -341.76322937 324.78211975 C-340.2306893 319.1957126 -339.84107712 313.80656031 -339.83203125 308.0390625 C-339.82870285 307.289664 -339.82537445 306.5402655 -339.82194519 305.76815796 C-339.81690538 304.18984588 -339.81453595 302.61152324 -339.81469727 301.03320312 C-339.8125129 298.63914145 -339.7943319 296.24554274 -339.77539062 293.8515625 C-339.77245551 292.30989739 -339.77047151 290.76823012 -339.76953125 289.2265625 C-339.76234573 288.52109283 -339.75516022 287.81562317 -339.74775696 287.08877563 C-339.79193345 277.31398518 -342.06909946 271.95402053 -349 265 C-349.79917847 264.19038818 -350.59835693 263.38077637 -351.42175293 262.54663086 C-353.71815004 260.24800372 -356.02988335 257.96644533 -358.35262299 255.69447327 C-360.42893056 253.66092338 -362.49533725 251.61742692 -364.56251907 249.57460785 C-368.39283683 245.78969342 -372.22708927 242.00897113 -376.07763672 238.24462891 C-378.77450558 235.60738344 -381.45879692 232.95788546 -384.13538361 230.30006409 C-385.14987528 229.29724413 -386.16886604 228.29895283 -387.19255829 227.30552673 C-398.45346581 216.36960757 -398.45346581 216.36960757 -399.21484375 207.49609375 C-398.32362268 200.88097399 -396.53283839 196.34287551 -391.5 191.6875 C-388.07658656 190.03692566 -385.50422574 189.47058628 -381.78125 188.89453125 C-380.69908203 188.7241333 -379.61691406 188.55373535 -378.50195312 188.37817383 C-377.67630859 188.25337646 -376.85066406 188.1285791 -376 188 C-375.88753968 187.45131602 -375.77507936 186.90263205 -375.65921116 186.33732128 C-372.92374344 172.99185897 -370.18622156 159.64681945 -367.44648075 146.3022337 C-366.12163032 139.84890536 -364.7974662 133.39543776 -363.47485352 126.94165039 C-362.1991334 120.71680578 -360.92163277 114.49232905 -359.64288139 108.26810646 C-359.1546185 105.88992214 -358.6670042 103.51160457 -358.18004036 101.13315392 C-357.49941402 97.80936452 -356.81651131 94.48605059 -356.13305664 91.1628418 C-355.93093567 90.1730986 -355.7288147 89.18335541 -355.52056885 88.16362 C-355.33408279 87.25918152 -355.14759674 86.35474304 -354.95545959 85.42289734 C-354.79414582 84.63660792 -354.63283205 83.85031851 -354.46662998 83.04020214 C-354 81 -354 81 -353 78 C-353.59425781 77.76023437 -354.18851563 77.52046875 -354.80078125 77.2734375 C-357.45137018 75.73863823 -358.53227968 74.18654918 -360.1875 71.625 C-360.69667969 70.85414062 -361.20585937 70.08328125 -361.73046875 69.2890625 C-364.65951048 64.00777495 -364.83299467 58.25169004 -363.3515625 52.46875 C-360.90816166 45.53533908 -357.55494152 41.40070064 -351.05078125 37.97265625 C-344.00327523 34.96812028 -337.27228022 35.27555187 -330.17578125 37.8984375 C-325.03771052 40.49975877 -321.35528442 44.5444279 -319.0625 49.8125 C-316.79893442 57.14079357 -317.22432086 64.10645827 -320.67578125 70.9609375 C-324.69519163 77.15011809 -330.10394045 79.89611743 -337 82 C-337.66 82 -338.32 82 -339 82 C-339.1193692 83.26297913 -339.2387384 84.52595825 -339.36172485 85.82720947 C-339.9644436 91.22333323 -341.05345961 96.46427802 -342.21240234 101.76464844 C-342.67360238 103.91150449 -343.13472988 106.05837613 -343.59579468 108.20526123 C-343.83902843 109.33037865 -344.08226219 110.45549606 -344.33286667 111.61470795 C-345.62270467 117.60027291 -346.88522331 123.59162399 -348.15234375 129.58203125 C-349.76345664 137.19209123 -351.38282447 144.80009785 -353.03271484 152.40185547 C-354.36860351 158.56031043 -355.67639108 164.72413882 -356.96532059 170.89258575 C-357.46141237 173.24077739 -357.9679093 175.58679541 -358.48490524 177.93047333 C-359.2046625 181.1996296 -359.88833104 184.47441464 -360.56396484 187.75292969 C-360.89714722 189.20554955 -360.89714722 189.20554955 -361.23706055 190.68751526 C-361.73624754 193.21229813 -362.1242547 195.4293493 -362 198 C-359.90110043 201.06966799 -359.90110043 201.06966799 -357 203 C-355.3748268 204.65740886 -353.75117249 206.31630821 -352.12890625 207.9765625 C-350.74647408 209.37968682 -349.36401722 210.78278767 -347.98022461 212.18457031 C-347.03416196 213.1457843 -346.0908004 214.1096642 -345.15014648 215.07617188 C-343.77534719 216.48759738 -342.38972178 217.88845179 -341.00390625 219.2890625 C-340.18736572 220.12131348 -339.3708252 220.95356445 -338.52954102 221.81103516 C-332.59135561 226.94970616 -327.64485677 227.4314683 -320.10546875 227.40625 C-319.15867752 227.41708618 -318.21188629 227.42792236 -317.23640442 227.43908691 C-314.22003327 227.47323879 -311.20403868 227.48891244 -308.1875 227.5 C-304.22229869 227.51465172 -300.25792628 227.54850756 -296.29296875 227.59375 C-294.94721016 227.58921814 -294.94721016 227.58921814 -293.57426453 227.58459473 C-284.73099494 227.68846097 -277.87108032 229.75721352 -270.9375 235.375 C-270.39641602 235.80707764 -269.85533203 236.23915527 -269.29785156 236.68432617 C-267.52054125 238.10944709 -265.75956165 239.55303881 -264 241 C-262.73614788 242.03052558 -261.47181331 243.06045972 -260.20703125 244.08984375 C-258.21596066 245.71059205 -256.22579465 247.33232816 -254.23974609 248.95922852 C-249.26256994 253.02231453 -244.18607023 256.93634879 -239.0625 260.8125 C-222.49113028 273.40778733 -222.49113028 273.40778733 -221.2734375 277.35546875 C-219.28832529 281.47792571 -215.80431566 283.32612496 -212.0625 285.8125 C-210.51900783 286.86642135 -208.97603972 287.92111059 -207.43359375 288.9765625 C-206.67804199 289.48864258 -205.92249023 290.00072266 -205.14404297 290.52832031 C-201.38681351 293.10729767 -197.7510761 295.84555765 -194.1015625 298.57421875 C-190.12410769 301.27267787 -186.69904199 301.32407186 -182 301 C-179.56008413 300.06134658 -177.46330093 299.11048691 -175.1875 297.875 C-174.53023926 297.52953125 -173.87297852 297.1840625 -173.19580078 296.828125 C-171.6815808 296.02905715 -170.17074579 295.22355543 -168.66259766 294.41308594 C-165.5892195 292.78199179 -162.48872382 291.20875644 -159.38671875 289.6328125 C-157.04872981 288.42332244 -154.71149117 287.21238093 -152.375 286 C-151.24860107 285.4313623 -150.12220215 284.86272461 -148.96166992 284.27685547 C-143.02106827 281.14392983 -138.89108782 278.429577 -135.19140625 272.78076172 C-133.5785767 270.37011034 -131.62304331 268.79246537 -129.3125 267.0625 C-128.45140625 266.4025 -127.5903125 265.7425 -126.703125 265.0625 C-125.81109375 264.381875 -124.9190625 263.70125 -124 263 C-122.18141908 261.52831602 -120.36899856 260.04899024 -118.5625 258.5625 C-117.64597656 257.81097656 -116.72945313 257.05945313 -115.78515625 256.28515625 C-114.86605469 255.53105469 -113.94695312 254.77695312 -113 254 C-110.25381608 251.75241401 -107.50695909 249.50568028 -104.7578125 247.26171875 C-102.89147315 245.731109 -101.03226608 244.19176793 -99.1796875 242.64453125 C-88.35404894 233.64326911 -80.45524619 227.71073925 -66.0703125 227.7265625 C-64.121088 227.7062738 -62.17186929 227.68542303 -60.22265625 227.6640625 C-57.1726389 227.64148795 -54.12285092 227.62499587 -51.07275391 227.61914062 C-48.11319292 227.60957669 -45.15464459 227.57575685 -42.1953125 227.5390625 C-41.29297882 227.54410797 -40.39064514 227.54915344 -39.46096802 227.55435181 C-30.89518255 227.42239168 -25.19472652 224.67579724 -19.207901 218.60978699 C-18.4262986 217.78780571 -18.4262986 217.78780571 -17.62890625 216.94921875 C-16.77896339 216.08367119 -16.77896339 216.08367119 -15.91184998 215.20063782 C-14.11879866 213.37231397 -12.33980472 211.53112387 -10.5625 209.6875 C-8.21657943 207.26787888 -5.86332821 204.85567389 -3.50390625 202.44921875 C-2.94158295 201.87218201 -2.37925964 201.29514526 -1.79989624 200.70062256 C1.37458643 197.48720816 4.59281285 194.67493109 8.26953125 192.02734375 C11.09800318 189.93197421 11.88020779 189.30570351 13.203125 185.9296875 C13.40728607 172.62519122 11.07272371 161.05382617 2.11328125 150.8515625 C-1.07116228 147.58578741 -4.44574045 144.61696825 -7.9375 141.6875 C-21.98713856 129.45604996 -28.45756425 114.99262224 -31 97 C-31.32894818 94.99927408 -31.66066519 92.9989905 -32 91 C-32.88300781 90.85304688 -33.76601563 90.70609375 -34.67578125 90.5546875 C-48.30737506 88.00699972 -59.26558739 82.53470113 -67.97265625 71.5 C-76.73008403 58.70783373 -79.11663766 44.49747559 -76.33984375 29.4140625 C-72.72448923 16.23601703 -65.08259848 5.81286303 -53.55859375 -1.5625 C-36.63090837 -10.69203818 -16.28259923 -10.5507185 0 0 Z M-56.25 20.5625 C-60.96645601 27.26347576 -64.16715947 36.82988372 -63 45 C-60.61726825 55.79983738 -56.74928516 63.86220309 -47.625 70.375 C-38.62814699 75.83683319 -29.51232105 77.70319829 -19.10546875 75.34375 C-9.72002794 72.29840417 -2.40260514 66.8991017 2.78125 58.4609375 C7.88621427 48.15283658 7.85966236 39.00158538 4.3203125 28.22265625 C0.83658267 19.71946953 -5.03915905 14.34227688 -13 10 C-13.92039062 9.48953125 -13.92039062 9.48953125 -14.859375 8.96875 C-29.62892443 2.15203488 -46.36030531 8.81848756 -56.25 20.5625 Z M-346.9375 53.125 C-349.17743666 55.83767184 -349.17743666 55.83767184 -349.625 59 C-348.77618008 63.0743356 -347.32274404 64.54405875 -344 67 C-341 67.83333333 -341 67.83333333 -338 67 C-334.97966263 65.06307631 -334.97966263 65.06307631 -333 62 C-332.36992307 58.00951279 -332.36978113 55.98314143 -334.5625 52.5625 C-339.12083094 49.64049299 -342.62082427 50.00229841 -346.9375 53.125 Z M-383 204 C-383.91757932 206.2354749 -383.91757932 206.2354749 -384 209 C-382.17450153 211.667131 -382.17450153 211.667131 -379.41943359 214.18237305 C-378.92042542 214.67422592 -378.42141724 215.1660788 -377.9072876 215.6728363 C-376.8209171 216.73971782 -375.72762208 217.79958311 -374.62836838 218.85318565 C-372.88244969 220.52704671 -371.15562098 222.21864352 -369.43252563 223.91596985 C-365.76315677 227.52354587 -362.07018943 231.10640555 -358.375 234.6875 C-354.11219346 238.8223165 -349.85969208 242.96701876 -345.62678909 247.13245583 C-343.93501465 248.78841593 -342.22839983 250.42791443 -340.52035522 252.06706238 C-332.55888233 259.8148847 -326.09922994 267.79429466 -325.75952148 279.34008789 C-325.73417831 280.19472626 -325.70883514 281.04936462 -325.682724 281.92990112 C-324.75055455 324.17086299 -324.75055455 324.17086299 -332.45703125 344.66650391 C-335.82631973 353.89462943 -338.51944636 363.37519244 -341.39111328 372.76651001 C-342.4863094 376.33044866 -343.59837259 379.88872032 -344.71484375 383.44604492 C-345.40383297 385.6592842 -346.09264276 387.87257934 -346.78125 390.0859375 C-347.10589233 391.11180466 -347.43053467 392.13767181 -347.76501465 393.19462585 C-348.05976685 394.1492421 -348.35451904 395.10385834 -348.65820312 396.08740234 C-348.91831177 396.91863617 -349.17842041 397.74987 -349.44641113 398.60629272 C-350.03387882 401.14649135 -350.09936011 403.40177641 -350 406 C-348.20800528 406.78282648 -348.20800528 406.78282648 -346 407 C-343.01942505 405.40308436 -342.08401924 404.19739419 -340.74865723 401.06010437 C-340.39654175 399.85908585 -340.04442627 398.65806732 -339.68164062 397.4206543 C-339.48265671 396.7568576 -339.28367279 396.09306091 -339.07865906 395.40914917 C-338.64949539 393.97054026 -338.22692303 392.52995212 -337.81022644 391.08768272 C-337.14950557 388.80087575 -336.47182871 386.51970969 -335.78967285 384.23921204 C-334.58918014 380.21555619 -333.40398832 376.18758069 -332.22369385 372.15795898 C-330.33732125 365.71848716 -328.43821105 359.28294046 -326.51957703 352.85300636 C-325.85499943 350.61215014 -325.20329201 348.36782459 -324.55236816 346.12297058 C-324.14157633 344.73766193 -323.73026687 343.35250663 -323.31835938 341.9675293 C-322.9662439 340.76412399 -322.61412842 339.56071869 -322.25134277 338.32084656 C-320.56462704 333.84459572 -318.49849195 330.20711852 -314.75 327.1875 C-308.00456123 324.2746969 -302.9573685 324.93339333 -296.1015625 326.91796875 C-292.63806023 328.70122178 -292.13349473 331.59080161 -290.95793152 335.19422913 C-290.58662613 336.45537033 -290.21532074 337.71651154 -289.83276367 339.01586914 C-289.62592453 339.71389145 -289.41908539 340.41191376 -289.20597839 341.13108826 C-288.75827718 342.64209022 -288.31202219 344.15352128 -287.86705589 345.66533089 C-286.91882785 348.87971537 -285.95703266 352.08998437 -284.99592304 355.30053616 C-283.20769946 361.27412485 -281.42459103 367.2490813 -279.66674805 373.23168945 C-278.44218131 377.39741833 -277.19946215 381.55734567 -275.94451332 385.71401787 C-275.47012313 387.29763702 -275.00250604 388.88330159 -274.54183006 390.47096443 C-273.89687489 392.69071589 -273.22899266 394.90231791 -272.55541992 397.11352539 C-272.18172775 398.373871 -271.80803558 399.63421661 -271.42301941 400.93275452 C-269.78245222 404.4689131 -268.59506203 405.56769132 -265 407 C-264.01 406.67 -263.02 406.34 -262 406 C-262.59675133 399.23614961 -264.3082256 393.14836823 -266.3515625 386.6875 C-266.68868256 385.60154541 -267.02580261 384.51559082 -267.37313843 383.39672852 C-268.45075867 379.92914138 -269.53739703 376.46446763 -270.625 373 C-271.33269947 370.73458364 -272.03973631 368.46896016 -272.74609375 366.203125 C-273.09414566 365.08738602 -273.44219757 363.97164703 -273.80079651 362.82209778 C-274.5047794 360.55451493 -275.20423142 358.28552077 -275.89927673 356.0151825 C-277.5436528 350.64413842 -279.22599927 345.30072714 -281.06079102 339.99145508 C-285.9592275 325.37637425 -287.00830128 311.79990842 -286.74780273 296.4284668 C-286.68636985 292.6173894 -286.68632393 288.80955871 -286.69335938 284.99804688 C-286.67799074 282.56507945 -286.65924408 280.13213044 -286.63671875 277.69921875 C-286.63540451 276.56506027 -286.63409027 275.43090179 -286.63273621 274.26237488 C-286.59929863 272.6971685 -286.59929863 272.6971685 -286.56518555 271.1003418 C-286.55295456 270.18455856 -286.54072357 269.26877533 -286.52812195 268.32524109 C-286 266 -286 266 -284.16633606 264.18440247 C-280.73052248 262.30593765 -278.72812828 262.96183591 -275 264 C-272.0142986 265.69209425 -269.34168267 267.7219173 -266.625 269.8125 C-265.04073448 270.98877961 -263.45608911 272.16454777 -261.87109375 273.33984375 C-260.24696631 274.55932399 -258.62326893 275.77937722 -257 277 C-253.91143867 279.31376114 -250.80623804 281.60213157 -247.6875 283.875 C-246.98898926 284.40456299 -246.29047852 284.93412598 -245.57080078 285.47973633 C-241.70615565 288.40037168 -241.70615565 288.40037168 -237.01953125 288.8203125 C-236.01986328 288.41425781 -236.01986328 288.41425781 -235 288 C-234.67 286.68 -234.34 285.36 -234 284 C-243.65753278 275.98611518 -253.36744518 268.05972844 -263.27197266 260.35302734 C-265.08980793 258.92968133 -266.89549796 257.49196407 -268.69921875 256.05078125 C-269.31450439 255.5611792 -269.92979004 255.07157715 -270.5637207 254.56713867 C-271.72231837 253.64466443 -272.87863664 252.71931538 -274.03198242 251.7902832 C-275.6659126 250.49394802 -277.3251212 249.24298004 -279 248 C-279.57901062 247.56563126 -280.15802124 247.13126251 -280.75457764 246.68373108 C-285.96658025 243.08004922 -289.91701335 242.28360736 -296.1796875 242.36328125 C-297.03249298 242.35290329 -297.88529846 242.34252533 -298.76394653 242.33183289 C-301.46804863 242.30235883 -304.17076792 242.30548921 -306.875 242.3125 C-338.778534 242.20655576 -338.778534 242.20655576 -349 232.35546875 C-350.34378477 230.97625215 -351.67703046 229.58669532 -353 228.1875 C-357.57581412 223.42847457 -362.19269738 218.88222048 -367.20556641 214.58276367 C-370.30588442 211.84815664 -373.03962736 208.77196199 -375.82421875 205.72265625 C-378.43200811 203.65796126 -379.75546082 203.63065666 -383 204 Z M12.1875 208.5625 C9.31839715 211.5830511 6.51210517 214.51883368 3.3125 217.1875 C0.54049633 219.53608152 -2.02277452 222.01986764 -4.55078125 224.625 C-5.19893799 225.28991455 -5.84709473 225.9548291 -6.51489258 226.63989258 C-7.80897977 227.97472338 -9.09445781 229.31797144 -10.36987305 230.6706543 C-17.62834118 238.14381896 -25.60558339 241.75586981 -36.09869385 242.06103516 C-38.56238143 242.08324043 -41.02454445 242.07784912 -43.48828125 242.0625 C-44.3587912 242.05976074 -45.22930115 242.05702148 -46.12619019 242.05419922 C-49.76912121 242.03900262 -53.40966704 242.02365923 -57.05151367 241.92822266 C-68.75203002 241.64886377 -76.63619606 242.27086734 -85.41333008 250.45605469 C-86.26693115 251.29555664 -87.12053223 252.13505859 -88 253 C-89.2437921 254.04600026 -90.49564868 255.08264057 -91.76171875 256.1015625 C-92.72722656 256.93429687 -93.69273437 257.76703125 -94.6875 258.625 C-99.2272167 262.51285995 -103.82590524 266.30378582 -108.51171875 270.015625 C-112.26115928 273.00575967 -115.954733 276.06333345 -119.65234375 279.1171875 C-122 281 -122 281 -125 283 C-124.67 284.98 -124.34 286.96 -124 289 C-120.05217699 289.28819961 -118.22307038 288.87109746 -115.171875 286.359375 C-114.46264893 285.78840088 -113.75342285 285.21742676 -113.02270508 284.62915039 C-112.2727124 284.00903076 -111.52271973 283.38891113 -110.75 282.75 C-109.14655804 281.47011296 -107.5410372 280.1928266 -105.93359375 278.91796875 C-105.11745605 278.26747559 -104.30131836 277.61698242 -103.46044922 276.94677734 C-99.62795972 273.91440274 -95.75066738 270.95609784 -91.8125 268.0625 C-91.1309082 267.53688477 -90.44931641 267.01126953 -89.74707031 266.46972656 C-86.21573801 263.90798476 -84.63137458 263.0006384 -80.13671875 262.99609375 C-77 264 -77 264 -75 267 C-70.32510854 289.86123552 -79.52422674 312.41100339 -86.86572266 333.62786865 C-87.14593262 334.4391925 -87.42614258 335.25051636 -87.71484375 336.08642578 C-87.96355225 336.79695099 -88.21226074 337.5074762 -88.46850586 338.23953247 C-89.09634022 340.01261619 -89.09634022 340.01261619 -89 342 C-65.9 342 -42.8 342 -19 342 C-19.82891785 336.78773745 -19.82891785 336.78773745 -21.49047852 332.10375977 C-21.79061859 331.39686005 -22.09075867 330.68996033 -22.3999939 329.9616394 C-22.72303497 329.21246246 -23.04607605 328.46328552 -23.37890625 327.69140625 C-39.94720836 288.03440585 -39.94720836 288.03440585 -33.48828125 269.01953125 C-28.97404886 258.78891781 -19.11956329 251.03207216 -11.2421875 243.35546875 C-9.21404515 241.36215767 -7.18938471 239.3653166 -5.1640625 237.36914062 C-2.00273122 234.2558597 1.16320131 231.14761143 4.34375 228.05395508 C6.94117893 225.52664603 9.52381777 222.98503892 12.09713364 220.4331913 C13.07501724 219.46888643 14.05829094 218.51001558 15.04700089 217.55681419 C16.42012895 216.23179104 17.77334734 214.88622796 19.12548828 213.53979492 C19.89998322 212.78163986 20.67447815 212.0234848 21.47244263 211.24235535 C23.30403424 209.06519699 23.30403424 209.06519699 22.74215698 206.21626282 C22.49724518 205.48489609 22.25233337 204.75352936 22 204 C17.04682913 203.35775937 15.47506855 204.99875444 12.1875 208.5625 Z M-143.515625 297.37890625 C-144.43110107 297.88510498 -145.34657715 298.39130371 -146.28979492 298.9128418 C-147.2666626 299.457229 -148.24353027 300.00161621 -149.25 300.5625 C-181.31350631 318.2492027 -181.31350631 318.2492027 -196.71484375 314.3046875 C-203.20308909 311.31011273 -208.87644014 306.50283138 -214.46875 302.10253906 C-215.12617188 301.58916992 -215.78359375 301.07580078 -216.4609375 300.546875 C-217.04665527 300.08120117 -217.63237305 299.61552734 -218.23583984 299.13574219 C-220.14756781 297.90499786 -221.77919819 297.42550636 -224 297 C-224.99 298.485 -224.99 298.485 -226 300 C-225.54149658 300.43755615 -225.08299316 300.8751123 -224.6105957 301.32592773 C-222.50030418 303.35207388 -220.4065012 305.39452755 -218.3125 307.4375 C-217.59126953 308.12521484 -216.87003906 308.81292969 -216.12695312 309.52148438 C-208.22982712 317.27437063 -202.82548139 325.98845998 -202.5 337.3125 C-202.63327823 342.91095385 -203.58343421 347.56278136 -205.55078125 352.82421875 C-205.81582962 353.55302246 -206.08087799 354.28182617 -206.35395813 355.03271484 C-209.52681405 363.63211781 -213.10228143 372.06647774 -216.6875 380.5 C-222.30640631 393.57534508 -222.30640631 393.57534508 -227 407 C-224.20862116 407.15533967 -224.20862116 407.15533967 -221 406 C-218.56966133 403.4836805 -216.79757596 400.576621 -214.9375 397.625 C-213.80380687 395.89816074 -212.66967895 394.17160685 -211.53515625 392.4453125 C-210.95652832 391.55102539 -210.37790039 390.65673828 -209.78173828 389.73535156 C-206.87871256 385.27858256 -203.8768345 380.89053961 -200.875 376.5 C-200.33093506 375.69385254 -199.78687012 374.88770508 -199.22631836 374.05712891 C-198.71593018 373.30608887 -198.20554199 372.55504883 -197.6796875 371.78125 C-197.23351074 371.12189453 -196.78733398 370.46253906 -196.32763672 369.78320312 C-194.06668376 366.74642483 -192.65115117 365.21705039 -189 364 C-183.67994547 363.59848645 -180.54726792 364.22342058 -176 367 C-173.70166016 369.73632812 -173.70166016 369.73632812 -171.5390625 373.03125 C-171.14480072 373.62240601 -170.75053894 374.21356201 -170.34432983 374.82263184 C-169.09137553 376.7067541 -167.85769619 378.60257675 -166.625 380.5 C-165.806017 381.74306445 -164.98571425 382.98526045 -164.1640625 384.2265625 C-163.76064636 384.83604736 -163.35723022 385.44553223 -162.94158936 386.07348633 C-161.34801822 388.47725153 -159.75262141 390.87974683 -158.1505127 393.27783203 C-157.02806054 394.95799702 -155.90996909 396.64107263 -154.79199219 398.32421875 C-154.10524414 399.32066406 -153.41849609 400.31710937 -152.7109375 401.34375 C-151.8144751 402.66149414 -151.8144751 402.66149414 -150.89990234 404.00585938 C-148.64319479 406.37450333 -147.20730387 406.70447232 -144 407 C-144.6252667 403.37081826 -145.61599604 400.17565422 -147.00952148 396.77001953 C-147.6303788 395.24285812 -147.6303788 395.24285812 -148.26377869 393.68484497 C-148.71169266 392.59517426 -149.15960663 391.50550354 -149.62109375 390.3828125 C-150.0810524 389.25229462 -150.54101105 388.12177673 -151.01490784 386.95700073 C-152.48492877 383.34461465 -153.96063054 379.73459109 -155.4375 376.125 C-156.91052918 372.52244375 -158.38219815 368.9193643 -159.84938049 365.31442261 C-160.76185736 363.07254165 -161.67767882 360.83201829 -162.59727478 358.5930481 C-167.56484054 346.39127913 -170.70785044 335.34550395 -165.3515625 322.57421875 C-160.55814553 313.44456041 -152.39828707 308.11935888 -144.08349609 302.42822266 C-143.31473145 301.8976123 -142.5459668 301.36700195 -141.75390625 300.8203125 C-141.05595947 300.34867676 -140.3580127 299.87704102 -139.63891602 299.39111328 C-137.71148457 297.99883771 -137.71148457 297.99883771 -137 295 C-139.70955066 295 -141.14841378 296.05958733 -143.515625 297.37890625 Z M-68 357 C-68 374.16 -68 391.32 -68 409 C-66.68 409.66 -65.36 410.32 -64 411 C-61.78836408 409.20611776 -61.78836408 409.20611776 -61.75949097 406.78536987 C-61.76393219 405.86603668 -61.76837341 404.94670349 -61.77294922 403.99951172 C-61.77310028 402.95858368 -61.77325134 401.91765564 -61.77340698 400.84518433 C-61.78372955 399.71807037 -61.79405212 398.59095642 -61.8046875 397.4296875 C-61.8075174 396.27832306 -61.81034729 395.12695862 -61.81326294 393.94070435 C-61.82448592 390.25203188 -61.84959444 386.56359947 -61.875 382.875 C-61.88502706 380.37890975 -61.89415338 377.8828157 -61.90234375 375.38671875 C-61.92443216 369.25773016 -61.95793053 363.12888223 -62 357 C-63.98 357 -65.96 357 -68 357 Z M-48 357 C-48.05058145 364.36894815 -48.08568333 371.73785178 -48.10986328 379.10693359 C-48.11994011 381.61541415 -48.13360179 384.12388292 -48.15087891 386.63232422 C-48.17505337 390.23147488 -48.18646612 393.83047067 -48.1953125 397.4296875 C-48.20563507 398.55680145 -48.21595764 399.68391541 -48.22659302 400.84518433 C-48.22674408 401.88611237 -48.22689514 402.92704041 -48.22705078 403.99951172 C-48.231492 404.91884491 -48.23593323 405.8381781 -48.24050903 406.78536987 C-48.21163592 409.20611776 -48.21163592 409.20611776 -46 411 C-45.01 411 -44.02 411 -43 411 C-41.74725277 408.49450555 -41.87970376 406.80264368 -41.88647461 403.99951172 C-41.88655014 402.95858368 -41.88662567 401.91765564 -41.88670349 400.84518433 C-41.89186478 399.71807037 -41.89702606 398.59095642 -41.90234375 397.4296875 C-41.90446617 395.70264084 -41.90446617 395.70264084 -41.90663147 393.94070435 C-41.91224284 390.25211014 -41.9247973 386.56357595 -41.9375 382.875 C-41.94251353 380.37890712 -41.94707669 377.8828133 -41.95117188 375.38671875 C-41.96221597 369.25779191 -41.9789652 363.12890024 -42 357 C-43.98 357 -45.96 357 -48 357 Z " fill="#7f22fe" transform="translate(443,49)"/>
<path d="M0 0 C2.93312675 1.99055088 2.93312675 1.99055088 5.5078125 0.88671875 C8.91888306 -0.75772273 12.27462482 -2.48972432 15.625 -4.25390625 C22.90278105 -7.51753619 31.11432998 -7.27793542 38.625 -4.9375 C47.37350195 -1.41827258 54.10745614 5.06563449 58.23046875 13.515625 C61.99286372 22.38764807 62.52119155 31.79013884 59.30900574 40.95252991 C55.29677676 50.00870388 47.8809996 57.30427114 40.91796875 64.16015625 C40.0707576 65.00549423 39.22354645 65.85083221 38.35066223 66.7217865 C36.57852624 68.48725837 34.80282573 70.24915908 33.02368164 72.00756836 C30.29494883 74.70484887 27.57730884 77.41293168 24.86132812 80.12304688 C23.13083493 81.84438016 21.39973691 83.56510566 19.66796875 85.28515625 C18.85547165 86.09340347 18.04297455 86.9016507 17.20585632 87.73439026 C16.45109512 88.47954391 15.69633392 89.22469757 14.91870117 89.99243164 C14.25666183 90.64764297 13.5946225 91.30285431 12.91252136 91.97792053 C9.51144398 95.11178222 6.95284288 96.25724451 2.28193665 96.12773132 C-0.38564006 95.50598178 -1.56716747 94.49606701 -3.57348633 92.64379883 C-4.26858307 92.00616608 -4.96367981 91.36853333 -5.67984009 90.71157837 C-6.40424286 90.02300751 -7.12864563 89.33443665 -7.875 88.625 C-8.95302383 87.60096573 -8.95302383 87.60096573 -10.05282593 86.5562439 C-15.04354362 81.75297933 -19.95205383 76.8647807 -24.86645508 71.98364258 C-26.66385149 70.20284803 -28.46660236 68.42744165 -30.2746582 66.6574707 C-32.9077126 64.07941608 -35.5237199 61.48508071 -38.13671875 58.88671875 C-38.93889328 58.10721359 -39.74106781 57.32770844 -40.56755066 56.52458191 C-49.25255683 47.80677392 -53.16714642 39.13978229 -53.19189453 26.88671875 C-53.01924336 17.40582461 -49.49157744 9.46213002 -42.875 2.625 C-29.63586816 -8.39095687 -14.54309208 -9.27477022 0 0 Z M-35.55078125 17.00390625 C-38.20113015 21.89398661 -39.79429759 26.00707031 -38.875 31.625 C-36.44036681 39.35584749 -31.90438887 44.26640321 -26.171875 49.81640625 C-25.33408508 50.64712143 -24.49629517 51.47783661 -23.63311768 52.33372498 C-20.97532766 54.9637038 -18.30062659 57.575682 -15.625 60.1875 C-13.81135111 61.97604928 -11.99883855 63.76575161 -10.1875 65.55664062 C-5.76305997 69.92618718 -1.32463188 74.28111761 3.125 78.625 C8.3793776 74.22502058 13.3161651 69.60751085 18.17578125 64.77734375 C19.28580757 63.67586754 19.28580757 63.67586754 20.41825867 62.55213928 C21.97008375 61.00970274 23.5205048 59.46585245 25.06958008 57.9206543 C27.44101213 55.55900235 29.82289949 53.20822702 32.20507812 50.85742188 C33.71680249 49.35222172 35.22789267 47.84638429 36.73828125 46.33984375 C37.44970779 45.64076401 38.16113434 44.94168427 38.89411926 44.22142029 C43.84305821 39.24990818 46.38552522 35.50600425 46.5625 28.3125 C46.42957643 21.72835253 44.15051652 17.65808031 39.5625 13.05859375 C35.0445011 9.09404971 31.34185363 8.26284168 25.52734375 8.34765625 C19.81276077 9.00738859 15.62553372 12.05864688 11.4375 15.8125 C8.71915055 18.23564408 6.92515133 19.72243978 3.125 19.625 C-0.70765009 18.17710997 -3.71514044 16.03378327 -6.9375 13.5625 C-11.97517813 9.73196361 -16.07545256 8.00351358 -22.46875 8.1953125 C-28.10645283 9.20204515 -32.29131862 12.37683693 -35.55078125 17.00390625 Z " fill="#7f22fe" transform="translate(253.875,177.375)"/>
<path d="M0 0 C2.51114813 2.75613819 3.4714364 5.15688474 4.3125 8.75 C6.41638919 16.15176561 10.58816497 21.65253914 16.99609375 25.91015625 C20.16188734 27.63190364 23.47671013 28.88671804 26.86328125 30.10546875 C29 31 29 31 31 33 C31.68253605 39.14282444 31.68253605 39.14282444 29.3359375 42.08984375 C26.70719431 44.23943475 24.45714863 45.10321789 21.25 46.1875 C13.67955642 49.19164428 8.52734489 54.18341806 5.125 61.625 C4.33495231 63.99514306 3.63386313 66.39589681 3 68.8125 C2 72 2 72 -1 74 C-7.32258065 74.4516129 -7.32258065 74.4516129 -11 72 C-12.02734375 69.390625 -12.02734375 69.390625 -12.9375 66.25 C-15.44509297 58.35013943 -19.00891814 52.5782306 -26 48 C-29.10525911 46.59249459 -32.22348169 45.34500229 -35.42578125 44.17578125 C-38 43 -38 43 -40 40 C-40.34330057 36.77297465 -40.4401008 34.76514256 -38.8046875 31.921875 C-36.58911749 29.5624368 -34.90565983 29.07312968 -31.8125 28.1875 C-23.95279076 25.49837887 -19.0219008 21.46960659 -15.1875 14.0625 C-13.75026586 10.92453879 -12.55129447 7.7643657 -11.4375 4.5 C-10 1 -10 1 -8.1875 -0.5625 C-5.11846319 -1.17630736 -2.99731785 -0.89281808 0 0 Z M-5 26 C-5.83144531 26.93972656 -5.83144531 26.93972656 -6.6796875 27.8984375 C-7.76636719 29.12433594 -7.76636719 29.12433594 -8.875 30.375 C-9.59429687 31.18710938 -10.31359375 31.99921875 -11.0546875 32.8359375 C-12.33295938 34.25795079 -13.64794586 35.64794586 -15 37 C-14.06027344 37.93972656 -14.06027344 37.93972656 -13.1015625 38.8984375 C-10.06770833 41.93229167 -7.03385417 44.96614583 -4 48 C-2.894019 46.75160501 -1.79029799 45.50120766 -0.6875 44.25 C-0.07261719 43.55390625 0.54226563 42.8578125 1.17578125 42.140625 C2.87314734 40.14885494 4.45477809 38.11101085 6 36 C5.45730469 35.52949219 4.91460937 35.05898437 4.35546875 34.57421875 C3.64003906 33.95160156 2.92460937 33.32898438 2.1875 32.6875 C1.47980469 32.07261719 0.77210938 31.45773438 0.04296875 30.82421875 C-1.70136739 29.26665665 -3.36778041 27.67341125 -5 26 Z " fill="#7f22fe" transform="translate(316,91)"/>
<path d="M0 0 C5.99707802 4.33122301 9.26679506 9.85307844 11 17 C12.17235396 25.37237686 10.95360655 32.0840952 6 39 C1.00077922 44.54306906 -4.40688969 48.46353436 -11.9765625 49.34765625 C-20.81352445 49.75121774 -27.42925858 48.13008393 -34.06640625 42.1328125 C-40.29577938 35.44826597 -42.6175353 29.18867669 -42.34375 20.0625 C-41.5063255 12.601809 -38.64107837 6.51447054 -33.0390625 1.47265625 C-22.92042113 -5.83525141 -10.74987833 -6.18209727 0 0 Z M-26 16 C-27.74580224 19.49160447 -27.56983131 23.19045358 -27 27 C-25.27568236 30.39855136 -22.84701941 32.50047573 -19.5625 34.4375 C-16.24117624 35.16657107 -14.2646544 34.999384 -11 34 C-8.13741447 32.09604776 -5.56409461 30.12818922 -4 27 C-3.46881827 23.20584481 -3.14910652 19.53668822 -5.046875 16.109375 C-7.36599447 13.29914787 -9.27984225 11.24082208 -12.953125 10.7265625 C-19.14891906 10.45259882 -21.7143351 11.50005186 -26 16 Z " fill="#7f22fe" transform="translate(403,224)"/>
<path d="M0 0 C6.00036355 4.3335959 9.23584613 9.8598743 11 17 C12.17263054 25.46228227 10.61105257 33.11665947 5.4921875 40.0390625 C0.57368359 45.41510166 -4.89267128 48.50569369 -12.1484375 49.37890625 C-20.75863518 49.68999731 -27.05808596 48.22520239 -33.75 42.75 C-40.76560414 34.17537272 -43.09588806 27.1755096 -42 16 C-39.59561831 7.85431437 -34.3910704 2.09323712 -27.09375 -2.09375 C-18.16514973 -6.0457534 -8.3122326 -4.78024298 0 0 Z M-26 16 C-27.96678441 20.24825433 -28.23874517 22.17141381 -26.9375 26.6875 C-24.31230089 31.17574363 -22.03333238 33.35106413 -17.0625 34.9375 C-12.09751404 35.03882624 -9.25011635 33.11852515 -5.625 29.875 C-3.3596793 25.86712492 -3.05865529 22.5010516 -4 18 C-5.72732021 14.93416597 -7.80455115 12.59772442 -11 11 C-17.72676652 10.05825269 -21.49380372 10.83436036 -26 16 Z " fill="#7f22fe" transform="translate(153,224)"/>
<path d="M0 0 C6.19322166 3.76632752 10.46029255 9.5251581 12.5 16.4375 C13.57048128 24.83483091 12.43792487 31.48232763 7.5 38.4375 C3.15168676 43.21173002 -1.23560185 46.10208992 -7.76953125 46.7734375 C-16.87936146 46.87387664 -22.29160555 45.97637715 -29.25 40.125 C-34.77078422 33.53072995 -36.81610426 28.08173565 -36.5 19.4375 C-35.30974774 13.2033099 -32.7758039 6.88440615 -27.5703125 2.99609375 C-19.51384855 -2.18306165 -9.07876323 -4.12510795 0 0 Z M-18.5 15.4375 C-20.81837458 17.75587458 -21.43523664 19.06511069 -22 22.3125 C-21.3044411 26.65974315 -19.72629595 28.48578243 -16.5 31.4375 C-12.19295982 32.84707678 -10.32266875 32.81002925 -6.1875 30.9375 C-2.85576898 27.83821533 -2.04355286 25.94122368 -1.5 21.4375 C-2.71677904 17.71558765 -3.83585656 15.94837957 -6.9375 13.5625 C-11.7247451 11.46078264 -14.47898822 12.55061975 -18.5 15.4375 Z " fill="#7f22fe" transform="translate(269.5,297.5625)"/>
<path d="M0 0 C2.12579589 2.15485005 2.94018193 3.41490448 3.25 6.4453125 C2.45803359 14.93420251 0.16406266 22.38380969 -6.1875 28.375 C-12.27483737 33.02303201 -19.37182269 35.80194424 -27.08203125 35.37890625 C-29 35 -29 35 -31.5625 33.4375 C-33.53974912 30.08477323 -33.48686939 27.82540234 -33 24 C-30.71480545 20.87565205 -28.31334469 20.40308915 -24.625 19.625 C-19.72583337 18.34527046 -16.91111738 17.36667607 -14 13 C-13.13841781 10.18852126 -12.44400444 7.4077465 -11.87109375 4.5234375 C-9.78102918 -1.53118901 -5.61777227 -1.53211971 0 0 Z " fill="#7f22fe" transform="translate(441,84)"/>
<path d="M0 0 C1.19173828 0.48662109 2.38347656 0.97324219 3.61132812 1.47460938 C5.31385742 2.19293945 5.31385742 2.19293945 7.05078125 2.92578125 C8.08501221 3.35930908 9.11924316 3.79283691 10.18481445 4.23950195 C12.93189204 5.82889979 13.74476999 6.69501077 14.6875 9.6875 C14.49975297 12.75403482 14.14867551 14.91887414 12.5625 17.5625 C9.61967159 19.32819705 7.06767937 18.87463419 3.6875 18.6875 C-1.03572926 17.32508502 -5.5213711 15.37568368 -10.0625 13.5 C-11.30570094 13.01163436 -12.54918855 12.52399784 -13.79296875 12.03710938 C-15.55833984 11.3168457 -15.55833984 11.3168457 -17.359375 10.58203125 C-18.43026367 10.14737549 -19.50115234 9.71271973 -20.60449219 9.26489258 C-23.73847072 7.43937551 -24.83928397 5.97162378 -26.3125 2.6875 C-26.3125 -0.4375 -26.3125 -0.4375 -25.3125 -3.3125 C-18.1113479 -9.87825632 -7.5490717 -3.20804421 0 0 Z " fill="#7f22fe" transform="translate(57.3125,81.3125)"/>
<path d="M0 0 C2 1.5625 2 1.5625 3 4 C2.70928054 11.40479556 0.01290187 17.55906375 -2.875 24.3125 C-3.54595703 25.93768555 -3.54595703 25.93768555 -4.23046875 27.59570312 C-8.00662951 36.55712299 -8.00662951 36.55712299 -11 39 C-13.72438869 39.60969182 -16.25989513 39.50806111 -19 39 C-21 37.375 -21 37.375 -22 35 C-22.49288938 28.36073288 -20.0215597 23.20846614 -17.52001953 17.17651367 C-16.75040835 15.3134885 -16.00525374 13.4419203 -15.26171875 11.56835938 C-14.77832031 10.38693359 -14.29492188 9.20550781 -13.796875 7.98828125 C-13.35698242 6.91102783 -12.91708984 5.83377441 -12.46386719 4.72387695 C-9.35074944 -1.06882731 -6.23452543 -1.70032512 0 0 Z " fill="#7f22fe" transform="translate(132,38)"/>
<path d="M0 0 C1.07540039 0.43538086 2.15080078 0.87076172 3.25878906 1.31933594 C4.44085938 1.79757813 5.62292969 2.27582031 6.84082031 2.76855469 C8.05640625 3.27515625 9.27199219 3.78175781 10.52441406 4.30371094 C11.76756691 4.80064792 13.01105423 5.29674901 14.25488281 5.79199219 C24.55387644 10.02213743 24.55387644 10.02213743 26.77441406 14.05371094 C26.77441406 18.07467606 26.61238427 20.18955416 23.77441406 23.11621094 C16.19934882 25.48341883 7.34613067 20.50212877 0.39941406 17.61621094 C-0.58414063 17.22111328 -1.56769531 16.82601562 -2.58105469 16.41894531 C-3.52335938 16.03158203 -4.46566406 15.64421875 -5.43652344 15.24511719 C-6.28520996 14.89650635 -7.13389648 14.54789551 -8.00830078 14.1887207 C-10.24414421 13.04421111 -11.63252563 11.98283716 -13.22558594 10.05371094 C-13.94068172 6.57638244 -13.8362957 3.20328226 -12.16308594 0.05371094 C-8.2607808 -1.96038204 -4.07779435 -1.19630116 0 0 Z " fill="#7f22fe" transform="translate(146.2255859375,116.9462890625)"/>
<path d="M0 0 C4.38211401 4.99228178 6.65964565 11.3622538 7.5 17.875 C7 21 7 21 5.4375 23.5 C3 25 3 25 -0.5 25.0625 C-4.7991895 23.7573889 -5.72399275 22.84566742 -8 19 C-10.36763982 14.30444586 -11.97832264 10.36567375 -12.0625 5.0625 C-11 2 -11 2 -8.8125 0 C-5.33229915 -1.23740475 -3.50268174 -1.14217883 0 0 Z " fill="#7f22fe" transform="translate(86,53)"/>
<path d="M0 0 C2 1.625 2 1.625 3 4 C3 7.5625 3 7.5625 2 11 C0 12.6875 0 12.6875 -3 14 C-3.68835938 14.350625 -4.37671875 14.70125 -5.0859375 15.0625 C-9.79516238 17.37693134 -13.66308267 18.94180894 -19 18 C-21.5 15.875 -21.5 15.875 -23 13 C-22.93819638 9.90981891 -22.74953132 7.94240746 -20.80078125 5.4921875 C-15.18611354 0.83968628 -7.05703331 -2.55254396 0 0 Z " fill="#7f22fe" transform="translate(155,81)"/>
<path d="M0 0 C3.25316837 2.736192 5.00402113 5.5273799 6.75 9.375 C7.17796875 10.29023438 7.6059375 11.20546875 8.046875 12.1484375 C9.09945405 15.29754696 9.25380615 17.70052008 9 21 C7.53937111 23.84438258 6.60149532 24.76256764 3.625 25.9375 C0.14239916 26.02041907 -1.20165848 25.0503977 -4 23 C-7.14699797 18.3307015 -10.28862067 12.73090706 -10.625 7 C-9.36002103 0.92810093 -6.03620816 -1.00603469 0 0 Z " fill="#7f22fe" transform="translate(121,138)"/>
<path d="M0 0 C2.4375 1.625 2.4375 1.625 4 4 C4.5 7 4.5 7 4 10 C-0.1799868 15.04143608 -5.86813292 17.11635456 -12 19 C-14.87904403 19.25272159 -16.21085463 18.97013752 -19 18 C-21.46324069 14.30513897 -21.38991688 12.36706908 -21 8 C-16.60503458 2.2793401 -6.92628167 -1.27217418 0 0 Z " fill="#7f22fe" transform="translate(68,117)"/>
<path d="M0 0 C4.91785714 1.36607143 4.91785714 1.36607143 6.375 3.9375 C6.89717036 8.36529152 6.80420258 10.32357732 4.21484375 14.02734375 C3.26572611 14.99489086 2.29753532 15.94404505 1.3125 16.875 C0.84650391 17.36806641 0.38050781 17.86113281 -0.09960938 18.36914062 C-2.86531005 21.08216129 -4.46482193 21.91949679 -8.34375 22.35546875 C-11.625 21.9375 -11.625 21.9375 -14.0625 20.3125 C-15.625 17.9375 -15.625 17.9375 -16.3125 15.1875 C-15.26001951 10.2121377 -12.17010151 7.43800904 -8.625 3.9375 C-7.8 3.091875 -6.975 2.24625 -6.125 1.375 C-3.625 -0.0625 -3.625 -0.0625 0 0 Z " fill="#7f22fe" transform="translate(217.625,100.0625)"/>
<path d="M0 0 C2.375 1.5625 2.375 1.5625 4 4 C4.56576067 8.44148561 4.43647262 10.3756784 1.83984375 14.08984375 C0.89072611 15.05739086 -0.07746468 16.00654505 -1.0625 16.9375 C-1.52849609 17.43056641 -1.99449219 17.92363281 -2.47460938 18.43164062 C-5.23171983 21.13623469 -6.85279608 21.9823541 -10.71484375 22.4453125 C-14 22 -14 22 -16.5 19.9375 C-18 17 -18 17 -18.3125 13.75 C-15.54208889 5.83453967 -8.64328917 -0.86432892 0 0 Z " fill="#7f22fe" transform="translate(251,69)"/>
<path d="M0 0 C2.87109375 2.0390625 2.87109375 2.0390625 5.4375 4.625 C6.30246094 5.46289062 7.16742188 6.30078125 8.05859375 7.1640625 C10.49027299 10.71617342 10.49246932 12.77670246 10 17 C7.99773871 20.00339193 6.74146627 20.81463343 3.25 21.6875 C-1.7253623 20.63501951 -4.49949096 17.54510151 -8 14 C-8.845625 13.175 -9.69125 12.35 -10.5625 11.5 C-12 9 -12 9 -12 5.375 C-11 2 -11 2 -9.375 0 C-5.90041308 -1.46298397 -3.64295664 -0.84038576 0 0 Z " fill="#7f22fe" transform="translate(245,101)"/>
<path d="M0 0 C4.81656767 2.19785127 9.64732617 7.18918359 12.01171875 11.91796875 C12.40104073 15.49973095 12.44768593 17.28078596 10.38671875 20.29296875 C8.01171875 21.91796875 8.01171875 21.91796875 5.26171875 22.60546875 C0.28635645 21.55298826 -2.48777221 18.46307026 -5.98828125 14.91796875 C-6.83390625 14.09296875 -7.67953125 13.26796875 -8.55078125 12.41796875 C-9.98828125 9.91796875 -9.98828125 9.91796875 -9.98828125 6.29296875 C-8.98828125 2.91796875 -8.98828125 2.91796875 -7.36328125 0.91796875 C-4.76984696 -0.17400358 -2.78894926 -0.51423143 0 0 Z " fill="#7f22fe" transform="translate(211.98828125,69.08203125)"/>
</svg>
