<?xml version="1.0" encoding="UTF-8"?>
<svg version="1.1" xmlns="http://www.w3.org/2000/svg" width="512" height="512">
<path d="M0 0 C0.99 0.495 0.99 0.495 2 1 C2.73057628 3.78979119 3.33461546 6.52822368 3.87939453 9.35595703 C4.14317902 10.67067238 4.14317902 10.67067238 4.41229248 12.01194763 C4.99444565 14.92559134 5.56390087 17.8415566 6.1328125 20.7578125 C6.53295284 22.77996837 6.93366632 24.80201091 7.33493042 26.82394409 C8.17591355 31.07166678 9.0107957 35.3205306 9.84130859 39.5703125 C10.90466881 45.00969201 11.98155608 50.44628281 13.06289864 55.8821125 C13.89317616 60.0624988 14.7168991 64.2441556 15.53860092 68.4262352 C15.93305896 70.4304023 16.32937756 72.43420414 16.72760391 74.43762589 C17.28474335 77.2464065 17.83320173 80.05674882 18.37939453 82.86767578 C18.54456573 83.69185501 18.70973694 84.51603424 18.87991333 85.3651886 C20.24986232 92.50119083 21.19069888 98.64635976 17 105 C12.91760027 109.41996249 9.06205227 112.07528016 3 113 C-3.51269919 113.07259378 -7.93237212 112.13411748 -13 108 C-12.91878906 108.79664063 -12.83757812 109.59328125 -12.75390625 110.4140625 C-12.69074219 111.47367187 -12.62757812 112.53328125 -12.5625 113.625 C-12.48128906 114.66914063 -12.40007812 115.71328125 -12.31640625 116.7890625 C-13 120 -13 120 -20 126 C-20.33 139.86 -20.66 153.72 -21 168 C8.7 168 38.4 168 69 168 C69 163.05 69 158.1 69 153 C67.30875 153.0825 65.6175 153.165 63.875 153.25 C58.71307045 153.23674729 55.89829743 152.61305616 52 149 C46.69490376 143.25159452 47.4206207 137.0052967 47.46875 129.5 C47.4649231 128.19095703 47.46109619 126.88191406 47.45715332 125.53320312 C47.45127395 122.76933804 47.45976959 120.00599198 47.47851562 117.2421875 C47.50130558 113.71137169 47.48817391 110.18177223 47.46422577 106.65100098 C47.44624044 103.26723823 47.45885768 99.88379724 47.46875 96.5 C47.46065308 95.23736328 47.45255615 93.97472656 47.44421387 92.67382812 C47.52761909 84.85878513 48.12655513 80.98709117 53.59765625 75.35546875 C59.24578882 70.85202438 63.94577663 70.2281093 71 71 C75.85764548 72.68642787 79.19144051 75.73515041 82 80 C83.75472599 83.7177269 84.26683124 86.71882438 84.34375 90.81640625 C84.37339844 91.91017578 84.40304688 93.00394531 84.43359375 94.13085938 C84.47794015 96.42252458 84.52221072 98.71419125 84.56640625 101.00585938 C84.59605469 102.09833984 84.62570313 103.19082031 84.65625 104.31640625 C84.67494141 105.31099854 84.69363281 106.30559082 84.71289062 107.33032227 C85.01160303 110.10789044 85.41117986 111.71117703 87 114 C90.00243322 115.84758569 92.27714701 116.25204956 95.7752533 116.26069641 C96.73273972 116.26778122 97.69022614 116.27486603 98.67672729 116.28216553 C99.72047516 116.27968811 100.76422302 116.27721069 101.83959961 116.2746582 C103.49628914 116.2823246 103.49628914 116.2823246 105.18644714 116.29014587 C108.84180095 116.30405986 112.49696659 116.30308375 116.15234375 116.30078125 C118.69055756 116.30466709 121.22877072 116.30900153 123.76698303 116.31376648 C129.08906428 116.32123253 134.41107631 116.32107264 139.7331543 116.31567383 C145.8805265 116.30963361 152.02766984 116.32194714 158.17500299 116.3432439 C164.09422033 116.3629946 170.01336684 116.3660324 175.93261909 116.36250877 C178.44884338 116.36302268 180.96507128 116.36827344 183.48127556 116.37832069 C186.99803234 116.39063968 190.51425776 116.38392025 194.03100586 116.37231445 C195.59359131 116.38378006 195.59359131 116.38378006 197.18774414 116.39547729 C204.10238167 116.38978305 204.10238167 116.38978305 210 113 C211.28735902 110.42528197 211.15962244 108.49789284 211.2109375 105.6171875 C211.23929687 104.53179687 211.26765625 103.44640625 211.296875 102.328125 C211.34842461 100.04963221 211.39284813 97.77096559 211.4296875 95.4921875 C211.82610308 81.48550364 211.82610308 81.48550364 216.38012695 76.484375 C221.57419829 71.95065667 225.63355142 70.51587471 232.40234375 70.6953125 C237.27545663 71.26689566 241.03270754 72.92152305 244.43174744 76.51266479 C248.92907584 82.89622624 248.70936144 89.09585665 248.62890625 96.6953125 C248.63131821 98.00152557 248.63373016 99.30773865 248.63621521 100.65353394 C248.6390595 103.40557348 248.62450527 106.15679294 248.59692383 108.90869141 C248.56277382 112.42379785 248.56889346 115.9374462 248.5875864 119.45262337 C248.60073161 122.82532974 248.58243471 126.19761631 248.56640625 129.5703125 C248.57136612 130.82667511 248.57632599 132.08303772 248.58143616 133.37747192 C248.43584788 144.17933479 248.43584788 144.17933479 244 149 C240.10170257 152.61305616 237.28692955 153.23674729 232.125 153.25 C230.43375 153.1675 228.7425 153.085 227 153 C227 157.95 227 162.9 227 168 C256.7 168 286.4 168 317 168 C316.67 154.47 316.34 140.94 316 127 C314.02 125.35 312.04 123.7 310 122 C309.1953125 118.66796875 309.1953125 118.66796875 309.125 115.1875 C309.08632813 114.02605469 309.04765625 112.86460937 309.0078125 111.66796875 C309.00523437 110.78753906 309.00265625 109.90710938 309 109 C308.236875 109.474375 307.47375 109.94875 306.6875 110.4375 C301.81563728 113.26997832 297.51261819 113.63538294 292 113 C286.07660303 111.12211147 282.03162168 107.6216151 278 103 C275.81371542 96.44114626 277.20870943 89.7767248 278.54467773 83.16894531 C278.79098434 81.90398979 278.79098434 81.90398979 279.04226685 80.61347961 C279.58218825 77.85022851 280.13275893 75.0892194 280.68359375 72.328125 C281.06297132 70.39870349 281.44171005 68.46915626 281.81983948 66.53948975 C282.81391323 61.47629426 283.81719459 56.41496507 284.82226562 51.35394287 C285.64200871 47.21822515 286.45533001 43.08125716 287.26829433 38.94420242 C288.94750664 30.39931452 290.63087556 21.85523728 292.32592773 13.31347656 C292.48129501 12.52691177 292.63666229 11.74034698 292.79673767 10.9299469 C293.45951192 7.59821219 294.15788439 4.29076437 295 1 C297.90566792 1.63443594 300.36265227 2.56139805 303.01953125 3.890625 C303.786604 4.26807861 304.55367676 4.64553223 305.34399414 5.03442383 C306.15860107 5.43556396 306.97320801 5.8367041 307.8125 6.25 C320.5687859 12.38536788 333.30633614 16.30489051 347.13748169 19.19335938 C348.41211273 19.45955078 349.68674377 19.72574219 351 20 C353.03422046 33.30899616 354.93631652 46.62901762 356.69921875 59.9765625 C356.81782572 60.87247478 356.93643269 61.76838707 357.0586338 62.69144821 C357.68314783 67.41007859 358.3055125 72.1289864 358.92602539 76.84814453 C359.56254945 81.68560443 360.20683665 86.52199856 360.85277081 91.35820961 C361.35381513 95.12047267 361.84908373 98.88348016 362.34281349 102.64670944 C362.57786954 104.43061146 362.81506438 106.21423314 363.05454063 107.99754715 C365.51791578 126.37097361 365.51791578 126.37097361 365 134 C362.51474256 136.48525744 361.47095704 136.5568991 358 137 C355.03 137 352.06 137 349 137 C349 147.23 349 157.46 349 168 C355.59621232 167.88204223 355.59621232 167.88204223 362.19165039 167.72973633 C369.36817829 167.66535733 374.17117227 168.55692151 379.75 173.375 C385.12363966 179.64424627 386.1538787 184.45904526 386.203125 192.546875 C386.20882507 193.27690735 386.21452515 194.0069397 386.22039795 194.75909424 C386.2298259 196.30227215 386.23637315 197.84546999 386.24023438 199.38867188 C386.24990997 201.72823042 386.28094045 204.06689849 386.3125 206.40625 C386.31903408 207.91145316 386.32428296 209.41666256 386.328125 210.921875 C386.3404718 211.611745 386.3528186 212.30161499 386.36553955 213.01239014 C386.33846795 219.03082596 385.02182749 224.47711092 381.203125 229.2421875 C380.55859375 229.78101563 379.9140625 230.31984375 379.25 230.875 C378.61578125 231.42929687 377.9815625 231.98359375 377.328125 232.5546875 C372.05926065 235.82562678 366.38640773 236.29357536 360.32339668 236.25447559 C359.57850847 236.25768207 358.83362025 236.26088855 358.06615967 236.26419219 C355.57422965 236.27248272 353.08254057 236.26657126 350.59060669 236.26069641 C348.78431537 236.26371753 346.97802533 236.26760681 345.17173755 236.27228898 C340.21101716 236.28258286 335.25036892 236.28038361 330.28964257 236.27610838 C324.93847894 236.27364369 319.58733279 236.28265213 314.23617554 236.29014587 C303.75379978 236.30290201 293.27144962 236.30468543 282.7890674 236.30234561 C274.26957103 236.30056332 265.75008244 236.30231017 257.23058701 236.30657005 C255.41249507 236.30746284 255.41249507 236.30746284 253.55767401 236.30837366 C251.09545033 236.30958539 248.63322665 236.31079953 246.17100297 236.31201603 C223.07476656 236.32289509 199.97854475 236.32072734 176.88230751 236.31463119 C155.74973924 236.30946164 134.61721706 236.32071784 113.4846579 236.33972941 C91.78928039 236.35909779 70.09392469 236.36736556 48.39853847 236.36360615 C36.21681952 236.3616926 24.0351398 236.3641967 11.85342789 236.37832069 C1.4831149 236.39022271 -8.8871347 236.39165261 -19.25744854 236.37953053 C-24.54864959 236.3736336 -29.83973465 236.37256496 -35.13092804 236.38453293 C-39.9756013 236.39536361 -44.82006131 236.39232187 -49.66472448 236.37827124 C-51.41634604 236.37561656 -53.16798417 236.378015 -54.9195895 236.38600711 C-74.56889277 236.4694312 -74.56889277 236.4694312 -81.33984375 231.16796875 C-81.86707031 230.51441406 -82.39429688 229.86085938 -82.9375 229.1875 C-83.48277344 228.54167969 -84.02804688 227.89585937 -84.58984375 227.23046875 C-87.80703954 222.14177402 -88.3261342 217.00519764 -88.37109375 211.109375 C-88.38012222 210.36471985 -88.3891507 209.6200647 -88.39845276 208.85284424 C-88.41289748 207.28295879 -88.42182756 205.71301393 -88.42553711 204.14306641 C-88.43739953 201.77009758 -88.48660617 199.39976238 -88.53710938 197.02734375 C-88.62905347 188.47204436 -88.44025212 181.1043621 -83 174 C-78.31328961 169.50125928 -73.83036292 167.8592543 -67.453125 167.90234375 C-66.69161133 167.90484131 -65.93009766 167.90733887 -65.14550781 167.90991211 C-64.18999023 167.91901611 -63.23447266 167.92812012 -62.25 167.9375 C-59.1975 167.958125 -56.145 167.97875 -53 168 C-53 157.44 -53 146.88 -53 136 C-55.64 136 -58.28 136 -61 136 C-63.56372164 135.58663836 -65.53517911 134.90544441 -68 134 C-72.50219846 124.99560308 -66.59946664 105.29769399 -65.3125 95.5859375 C-65.04691836 93.55673903 -64.78170704 91.52749207 -64.5168457 89.49819946 C-63.9649569 85.27722424 -63.41000588 81.05666787 -62.85253906 76.83642578 C-62.13861605 71.4313304 -61.43037515 66.02550998 -60.72413635 60.61940575 C-60.17829218 56.44309172 -59.63055113 52.26702841 -59.0821228 48.09105301 C-58.82024507 46.09681232 -58.55870625 44.10252709 -58.29751587 42.10819626 C-57.93318498 39.33019515 -57.56655952 36.55250685 -57.19921875 33.77490234 C-57.09217621 32.95617645 -56.98513367 32.13745056 -56.87484741 31.29391479 C-56.370285 27.49693033 -55.81584431 23.74586642 -55 20 C-54.12601563 19.81993408 -54.12601563 19.81993408 -53.234375 19.63623047 C-35.99320794 16.03415488 -20.772172 11.49420176 -5.4050293 2.80761719 C-3.63271633 1.81726278 -1.81928634 0.90116165 0 0 Z M85 153 C85 157.95 85 162.9 85 168 C126.58 168 168.16 168 211 168 C211 163.05 211 158.1 211 153 C169.42 153 127.84 153 85 153 Z " fill="#7f22fe" transform="translate(107,261)"/>
<path d="M0 0 C1.33575073 0.78636841 1.33575073 0.78636841 2.69848633 1.58862305 C5.66145159 3.33714587 8.61182963 5.10582017 11.5625 6.875 C13.71274224 8.15108759 15.86380611 9.4257916 18.015625 10.69921875 C21.41035614 12.70875064 24.80455277 14.71911686 28.19458008 16.73657227 C35.98707153 21.37124308 43.82327865 25.92547478 51.6875 30.4375 C61.25360755 35.92842126 70.72998992 41.55262932 80.17285156 47.25244141 C88.61745835 52.33746552 97.14185533 57.2737027 105.69140625 62.1796875 C114.65266185 67.32946521 123.54433431 72.59077813 132.42578125 77.87670898 C140.39236342 82.61004777 148.40200342 87.26004624 156.4375 91.875 C181.17740663 106.10481326 181.17740663 106.10481326 182.5625 108.875 C144.9425 108.875 107.3225 108.875 68.5625 108.875 C67.9025 103.925 67.2425 98.975 66.5625 93.875 C62.27518772 78.93436629 55.17211241 67.82316118 41.5625 59.875 C27.70687644 52.689922 13.23924337 50.98681903 -1.75 55.625 C-6.21336113 57.21485159 -9.89293556 59.19804798 -13.62109375 62.1171875 C-15.4375 62.875 -15.4375 62.875 -17.8828125 62.16015625 C-20.24728187 60.97069077 -22.5622953 59.72411735 -24.875 58.4375 C-37.57322688 52.09779265 -51.19430273 51.45587475 -64.6875 55.5625 C-80.40188065 61.37180561 -90.29218644 71.12511458 -97.53515625 86.15234375 C-100.30950344 93.41583563 -100.47752044 101.19516354 -101.4375 108.875 C-139.0575 108.875 -176.6775 108.875 -215.4375 108.875 C-212.04268567 105.48018567 -208.99581932 103.21178141 -204.92578125 100.85546875 C-204.28952316 100.48041702 -203.65326508 100.1053653 -202.99772644 99.71894836 C-200.91831528 98.49465598 -198.83415644 97.27869341 -196.75 96.0625 C-195.29125496 95.20512718 -193.83292591 94.34704622 -192.375 93.48828125 C-190.16341083 92.18568999 -187.95158665 90.88352077 -185.73843384 89.58358765 C-179.44683817 85.88778022 -173.18750581 82.14076982 -166.9375 78.375 C-156.76990624 72.25979855 -146.57121529 66.19810339 -136.36572266 60.14648438 C-126.53967228 54.31916483 -116.73242796 48.46181654 -106.94262695 42.57373047 C-99.20425034 37.92388655 -91.44201244 33.31531233 -83.67462158 28.71420288 C-70.20140586 20.73262351 -56.7862594 12.66133267 -43.4140625 4.51171875 C-42.40504883 3.89796387 -41.39603516 3.28420898 -40.35644531 2.65185547 C-38.42667105 1.47714009 -36.49889622 0.29913314 -34.57324219 -0.88232422 C-33.69055664 -1.42002441 -32.80787109 -1.95772461 -31.8984375 -2.51171875 C-30.74674072 -3.21687622 -30.74674072 -3.21687622 -29.57177734 -3.9362793 C-19.17157292 -9.72884339 -9.50697972 -5.77044774 0 0 Z " fill="#7f22fe" transform="translate(272.4375,22.125)"/>
<path d="M0 0 C2.18675137 1.50586832 4.25956938 3.04542306 6.28125 4.765625 C8.22754362 6.16341769 9.62318979 6.71841004 12 7 C14.48616181 5.57495324 14.48616181 5.57495324 16.1640625 4.31640625 C18.38217887 2.72596962 20.6711029 1.29821489 23 -0.125 C23.804375 -0.62257813 24.60875 -1.12015625 25.4375 -1.6328125 C34.14230422 -6.27714402 44.73295493 -6.31622904 54.2734375 -4.3125 C64.68712268 -0.81210162 72.97688553 6.17743422 78.25 15.8125 C83.72094918 27.59783636 82.59995739 39.8517339 79 52 C75.51842834 60.51950481 71.06470028 68.06167901 65 75 C64.31035156 75.80953125 63.62070312 76.6190625 62.91015625 77.453125 C52.940484 88.87707281 41.5345666 97.60731725 29 106 C27.99453125 106.69222656 26.9890625 107.38445312 25.953125 108.09765625 C18.87259737 112.5282231 12.23230983 113.37834545 4 112 C-0.09562605 110.54852813 -3.4327962 108.46014055 -7 106 C-8.08925781 105.27296875 -9.17851562 104.5459375 -10.30078125 103.796875 C-31.54110306 89.31659945 -52.65372001 70.95175212 -59 45 C-61.31323941 32.66793316 -59.74680438 21.00003044 -52.79296875 10.3203125 C-40.19614906 -5.98145415 -17.86576033 -10.40148339 0 0 Z " fill="#7f22fe" transform="translate(245,94)"/>
<path d="M0 0 C17.25465431 -0.09344503 34.50922964 -0.16397994 51.76407909 -0.20724869 C59.77582953 -0.22787321 67.78742274 -0.25599156 75.79907227 -0.30175781 C82.78210741 -0.34162913 89.76502868 -0.36743362 96.74817449 -0.37635398 C100.44569038 -0.3815683 104.14288051 -0.39382105 107.84029198 -0.42292023 C111.96813782 -0.45514342 116.09541747 -0.45595923 120.22338867 -0.45410156 C121.44906052 -0.46848267 122.67473236 -0.48286377 123.93754578 -0.49768066 C132.22216206 -0.45722236 132.22216206 -0.45722236 136.21772766 1.89141846 C140.40735499 6.8481081 140.33786762 11.72243331 140.3125 17.9375 C140.32861328 18.72318359 140.34472656 19.50886719 140.36132812 20.31835938 C140.36546295 25.25947165 139.87308857 28.79990756 137 33 C133.15126766 35.85029325 130.41151541 36.3725973 125.66618347 36.36076355 C124.38877289 36.36488754 123.1113623 36.36901154 121.79524231 36.3732605 C120.38717438 36.36264441 118.97910861 36.35174 117.57104492 36.34057617 C116.08264178 36.3397296 114.59423738 36.34020562 113.10583496 36.34190369 C109.07102571 36.34276391 105.03648438 36.32513385 101.00173736 36.30418181 C96.78301717 36.28541952 92.56429075 36.28366493 88.34553528 36.28010559 C80.35934197 36.27078381 72.37327197 36.24616823 64.38713294 36.21605712 C55.29409978 36.18251726 46.20106071 36.16602814 37.10798109 36.15097082 C18.40525084 36.11961879 -0.29736467 36.0668557 -19 36 C-17.53358484 32.9790116 -15.89445474 30.43634444 -13.875 27.75 C-10.69661723 23.27227836 -8.13342771 18.65086022 -5.6875 13.75 C-5.35024902 13.07678711 -5.01299805 12.40357422 -4.66552734 11.70996094 C-2.78808289 7.87158789 -1.3387275 4.06565155 0 0 Z " fill="#7f22fe" transform="translate(338,145)"/>
<path d="M0 0 C1.11754166 -0.00412399 2.23508331 -0.00824799 3.38648987 -0.01249695 C4.60281097 -0.00171112 5.81913208 0.00907471 7.0723114 0.02018738 C8.36051285 0.0197493 9.64871429 0.01931122 10.97595215 0.01885986 C14.50046324 0.01800032 18.02466705 0.03561918 21.54910684 0.05658174 C25.23530783 0.07535548 28.92151614 0.07709952 32.60775757 0.08065796 C39.58460443 0.08997639 46.56131001 0.11458738 53.5380947 0.14470643 C61.48241681 0.17825676 69.42674572 0.19473803 77.37112105 0.20979273 C93.70999568 0.24113717 110.04872827 0.29389367 126.38749695 0.36076355 C126.89804123 1.70615204 126.89804123 1.70615204 127.41889954 3.07872009 C127.86695953 4.25299561 128.31501953 5.42727112 128.7766571 6.63713074 C129.44188889 8.38470673 129.44188889 8.38470673 130.12055969 10.16758728 C133.42610659 18.49885534 138.38755203 25.76082965 144.1023407 32.61857605 C145.38749695 34.36076355 145.38749695 34.36076355 145.38749695 36.36076355 C125.8032099 36.45421798 106.21896813 36.52474819 86.63450432 36.56801224 C77.54102498 36.58863472 68.44768422 36.61674929 59.35429382 36.66252136 C51.42819632 36.70239878 43.50219918 36.72819865 35.57600415 36.73711753 C31.37936359 36.74233076 27.18301015 36.75457706 22.98646164 36.78368378 C19.03512132 36.81086729 15.08418595 36.8192027 11.132761 36.81319427 C9.68395727 36.81429321 8.23513978 36.82222994 6.78641701 36.83758545 C4.8049008 36.85755508 2.82316651 36.8503023 0.84156799 36.84178162 C-0.82042476 36.84731237 -0.82042476 36.84731237 -2.51599312 36.85295486 C-6.39027054 36.23713714 -8.56710417 34.7911634 -11.61250305 32.36076355 C-13.94775414 27.67680172 -13.94753803 22.98972434 -13.92500305 17.86076355 C-13.94917297 16.76054871 -13.94917297 16.76054871 -13.97383118 15.6381073 C-13.9781233 10.83951399 -13.37271854 7.44997168 -10.61250305 3.36076355 C-6.9800598 0.72075158 -4.46105582 -0.01273375 0 0 Z " fill="#7f22fe" transform="translate(47.61250305175781,144.6392364501953)"/>
<path d="M0 0 C32.67 0 65.34 0 99 0 C95.01113838 11.96658486 88.24774672 21.58028217 80 31 C79.38769531 31.75667969 78.77539062 32.51335937 78.14453125 33.29296875 C62.85718343 51.70949651 40.37534225 62.86455832 17.8125 69.5 C16.9153125 69.7676416 16.018125 70.0352832 15.09375 70.31103516 C6.75981064 72.64270446 6.75981064 72.64270446 3 71 C-0.29344614 67.63384527 -0.36655416 65.00227166 -0.34057617 60.39550781 C-0.34093778 59.73090923 -0.34129938 59.06631065 -0.34167194 58.38157272 C-0.33943956 56.23844627 -0.31662674 54.0961107 -0.29296875 51.953125 C-0.28994751 50.64005371 -0.28692627 49.32698242 -0.28381348 47.97412109 C-0.26810953 43.06600085 -0.22622567 38.15799259 -0.1875 33.25 C-0.125625 22.2775 -0.06375 11.305 0 0 Z " fill="#7f22fe" transform="translate(48,195)"/>
<path d="M0 0 C32.67 0 65.34 0 99 0 C99.0825 11.1375 99.165 22.275 99.25 33.75 C99.28641602 37.26366211 99.32283203 40.77732422 99.36035156 44.39746094 C99.37841797 48.69580078 99.37841797 48.69580078 99.3817749 50.70953369 C99.38790799 52.11274287 99.4019576 53.51593126 99.42230225 54.91900635 C99.45161799 57.04761231 99.45562321 59.17493311 99.45410156 61.30371094 C99.46298401 62.50284119 99.47186646 63.70197144 99.48101807 64.93743896 C99 68 99 68 97.20013428 70.4241333 C95 72 95 72 91.34375 71.91015625 C67.2376796 67.45989048 44.56554084 56.10099761 27 39 C26.16855469 38.23042969 25.33710938 37.46085937 24.48046875 36.66796875 C14.14340006 26.83902018 6.47566407 14.6513655 0 2 C0 1.34 0 0.68 0 0 Z " fill="#7f22fe" transform="translate(363,195)"/>
<path d="M0 0 C9.735 -0.0825 19.47 -0.165 29.5 -0.25 C32.55958984 -0.28641602 35.61917969 -0.32283203 38.77148438 -0.36035156 C41.21223246 -0.37204036 43.65298836 -0.38223173 46.09375 -0.390625 C47.34833008 -0.41108887 48.60291016 -0.43155273 49.89550781 -0.45263672 C57.55602065 -0.45567902 63.70506405 -0.11336452 69.51159668 5.44769287 C73.98265457 10.53822986 75.25965816 14.01709213 75.125 20.75 C75.10695313 21.92046875 75.08890625 23.0909375 75.0703125 24.296875 C75.04710937 25.18890625 75.02390625 26.0809375 75 27 C73.93072266 27.25523437 73.93072266 27.25523437 72.83984375 27.515625 C61.51991138 30.37988783 54.51325629 34.77740551 48.11328125 44.7421875 C43.55201185 53.99276193 44.56009689 62.35815915 44 73 C29.48 73 14.96 73 0 73 C0 48.91 0 24.82 0 0 Z " fill="#7f22fe" transform="translate(261,291)"/>
<path d="M0 0 C1.21755981 0.0002417 2.43511963 0.0004834 3.6895752 0.00073242 C5.59446716 0.01608032 5.59446716 0.01608032 7.5378418 0.03173828 C9.29952698 0.03475952 9.29952698 0.03475952 11.09680176 0.0378418 C15.47692785 0.04829252 19.85699819 0.0762151 24.23706055 0.10205078 C34.03393555 0.14330078 43.83081055 0.18455078 53.92456055 0.22705078 C53.92456055 24.31705078 53.92456055 48.40705078 53.92456055 73.22705078 C40.06456055 73.22705078 26.20456055 73.22705078 11.92456055 73.22705078 C11.59456055 66.62705078 11.26456055 60.02705078 10.92456055 53.22705078 C7.58959604 43.22215726 4.15526628 36.36310715 -5.1730957 31.15283203 C-10.40808018 28.60521125 -15.34904784 27.81943612 -21.07543945 27.22705078 C-21.99500102 13.82188667 -21.99500102 13.82188667 -17.5012207 7.80908203 C-12.42024171 2.17128342 -7.54147839 -0.03175359 0 0 Z " fill="#7f22fe" transform="translate(193.075439453125,290.77294921875)"/>
</svg>
